<?xml version="1.0" standalone="no"?>
<!DOCTYPE svg PUBLIC "-//W3C//DTD SVG 20010904//EN"
 "http://www.w3.org/TR/2001/REC-SVG-20010904/DTD/svg10.dtd">
<svg version="1.0" xmlns="http://www.w3.org/2000/svg"
 width="346.000000pt" height="323.000000pt" viewBox="0 0 346.000000 323.000000"
 preserveAspectRatio="xMidYMid meet">

<g transform="translate(0.000000,323.000000) scale(0.100000,-0.100000)"
fill="#00447F" stroke="none">
<path d="M1804 2652 c-23 -3 -37 -16 -79 -68 -31 -39 -32 -80 -5 -152 l20 -54
-30 -28 c-17 -16 -40 -30 -52 -32 -33 -5 -58 -60 -62 -136 -4 -80 -19 -122
-43 -122 -16 0 -70 56 -83 86 -3 6 -42 44 -87 84 -46 40 -83 76 -83 79 0 17
-101 109 -130 120 -69 24 -183 7 -295 -43 -16 -8 -41 -19 -55 -24 -47 -20
-159 -51 -240 -66 -45 -9 -86 -18 -91 -22 -15 -9 -51 -16 -101 -21 -54 -6 -73
-22 -64 -57 9 -35 76 -60 142 -51 57 7 152 -17 161 -42 14 -35 -52 -57 -99
-32 -14 8 -27 8 -42 1 -11 -6 -33 -13 -48 -16 -38 -9 -49 -33 -35 -80 8 -26
25 -49 51 -68 43 -31 81 -35 129 -14 51 21 205 45 301 46 49 0 93 3 97 6 4 2
18 0 31 -5 13 -5 43 -15 68 -22 25 -6 61 -22 80 -35 19 -13 62 -38 95 -56 33
-19 64 -43 70 -53 17 -33 86 -135 96 -141 20 -12 6 -48 -35 -90 -25 -24 -50
-44 -57 -44 -7 0 -22 -9 -33 -19 -12 -11 -43 -28 -71 -38 l-50 -18 -9 -58 c-7
-42 -6 -63 4 -81 20 -38 4 -76 -55 -132 -49 -46 -55 -55 -55 -92 0 -22 -8 -54
-17 -71 -17 -29 -17 -31 11 -85 30 -57 144 -171 192 -192 29 -12 154 -158 154
-180 0 -19 66 -80 102 -95 15 -6 41 -32 57 -58 17 -26 42 -58 56 -71 14 -13
25 -33 25 -45 0 -24 82 -145 123 -184 18 -16 33 -22 49 -18 48 12 57 29 66
112 11 99 9 134 -12 210 -8 33 -18 75 -21 94 -3 19 -8 38 -11 43 -3 4 0 8 6 8
6 0 13 -7 16 -15 4 -8 11 -15 16 -15 16 0 128 -102 128 -117 0 -7 12 -19 26
-25 23 -11 29 -10 44 10 22 27 19 46 -25 147 -8 17 -16 48 -20 69 -5 28 -22
57 -61 100 -30 34 -54 65 -54 70 0 4 -16 30 -35 56 -34 47 -53 114 -34 125 10
7 269 -246 269 -262 0 -13 67 -46 79 -39 8 5 6 17 -6 39 -9 18 -26 74 -38 125
-18 74 -20 95 -10 109 17 23 41 10 62 -34 10 -21 25 -39 34 -41 14 -2 17 9 21
60 7 92 0 109 -58 138 -44 22 -90 48 -233 132 -25 15 -87 48 -138 74 -97 50
-114 50 -126 3 -4 -15 4 -25 41 -44 71 -38 81 -45 162 -114 85 -73 110 -99
148 -156 49 -73 64 -126 42 -140 -11 -7 -39 18 -149 126 -64 63 -102 89 -129
89 -11 0 -25 7 -32 16 -8 8 -40 36 -73 61 -63 47 -117 62 -123 33 -2 -8 -6
-24 -9 -35 -7 -23 52 -92 95 -113 49 -24 91 -61 154 -136 57 -66 106 -149 106
-177 0 -5 12 -27 26 -48 25 -38 29 -82 9 -87 -5 -1 -32 23 -59 54 -47 54 -142
122 -170 122 -7 0 -21 9 -31 20 -11 12 -35 28 -54 37 -20 9 -47 24 -61 34 -68
46 -117 68 -129 56 -6 -6 -11 -16 -11 -23 0 -21 41 -64 93 -98 79 -52 215
-190 242 -246 22 -46 40 -149 40 -230 0 -62 -1 -65 -25 -65 -14 0 -29 8 -35
20 -5 11 -20 35 -32 52 -13 17 -23 37 -23 45 0 7 -15 36 -33 63 -86 130 -139
205 -147 205 -4 0 -19 17 -34 39 -15 21 -73 78 -128 127 -56 49 -108 96 -115
104 -47 53 -74 91 -89 129 -17 42 -17 42 9 69 14 15 34 48 45 73 12 25 27 51
35 57 7 6 22 38 31 69 37 119 95 216 140 233 13 5 36 25 51 44 15 20 35 36 44
36 9 0 47 -24 83 -52 37 -29 89 -65 115 -80 44 -26 165 -120 238 -187 60 -55
112 -90 205 -141 146 -79 188 -109 259 -184 65 -70 165 -166 172 -166 4 0 41
-34 82 -76 l76 -77 43 34 c23 19 71 61 106 94 l64 59 -5 52 c-3 30 -16 68 -30
91 -28 45 -82 93 -102 93 -14 0 -35 29 -35 50 0 6 12 15 27 21 15 6 33 15 41
21 7 6 30 13 50 15 42 4 152 54 172 78 7 8 19 15 26 15 8 0 14 5 14 12 0 6 6
19 13 27 7 9 19 44 26 79 11 58 11 64 -9 89 -11 14 -20 37 -20 52 -1 41 -36
108 -60 116 -27 9 -61 -7 -116 -55 -23 -19 -71 -50 -108 -68 -67 -33 -67 -33
-142 -22 -41 6 -89 10 -107 9 -22 -2 -47 7 -81 29 -28 18 -56 32 -64 32 -14 0
-88 57 -151 118 -19 17 -38 32 -43 32 -15 0 -8 27 11 44 14 12 44 19 109 23
87 6 93 8 137 44 25 21 69 50 98 64 63 31 116 69 134 94 7 11 48 39 90 64 79
46 193 127 179 127 -5 0 -1 11 7 24 15 23 15 25 -6 39 -12 8 -37 18 -55 21
-46 11 -49 25 -13 58 24 22 40 28 56 24 13 -3 26 -2 29 3 3 5 22 12 43 16 20
3 58 16 84 27 l48 21 -5 46 c-3 25 -9 57 -14 71 -5 14 -11 37 -14 53 -6 25
-10 27 -55 27 -26 0 -61 -7 -78 -15 -20 -10 -58 -14 -119 -14 -49 1 -123 -1
-164 -5 -132 -13 -190 -14 -196 -4 -3 5 -18 6 -34 3 -15 -3 -45 1 -66 9 -21 8
-74 16 -116 19 -50 2 -86 10 -103 21 -15 10 -52 26 -83 37 -31 11 -66 26 -79
34 -20 13 -35 14 -108 3 -73 -10 -86 -10 -102 4 -23 19 -42 25 -69 20z m231
-142 c11 -10 34 -20 50 -23 17 -3 50 -13 75 -22 25 -9 92 -21 150 -25 58 -5
121 -11 140 -13 107 -14 138 -20 168 -29 37 -11 214 3 330 27 59 12 63 12 77
-8 13 -19 13 -23 -3 -40 -44 -49 -147 -79 -282 -82 -130 -2 -332 16 -375 35
-11 5 -40 11 -64 15 -24 3 -55 12 -70 19 -14 8 -59 17 -99 21 -67 7 -74 6 -70
-10 2 -12 21 -22 57 -32 30 -7 60 -18 67 -24 21 -17 136 -49 177 -49 21 0 48
-5 60 -12 29 -16 149 -37 213 -37 28 -1 68 -8 88 -16 21 -9 63 -16 94 -16 64
-1 101 -22 81 -46 -6 -7 -17 -13 -24 -13 -6 0 -20 -9 -30 -20 -15 -17 -26 -19
-74 -14 -92 11 -248 44 -296 64 -16 6 -55 16 -85 21 -30 6 -69 12 -87 16 -18
3 -38 11 -44 19 -6 8 -19 14 -29 14 -10 0 -54 11 -98 23 -65 19 -82 21 -86 10
-4 -9 3 -13 20 -13 14 0 42 -9 62 -20 20 -10 60 -29 87 -40 28 -12 62 -28 76
-36 15 -7 58 -16 98 -19 39 -3 97 -14 128 -25 32 -10 87 -24 123 -30 152 -27
161 -78 19 -110 -31 -7 -74 -10 -95 -6 -21 4 -77 9 -123 12 -61 4 -96 12 -129
30 -25 13 -55 24 -66 24 -12 0 -27 5 -33 11 -12 12 -53 3 -53 -11 0 -17 104
-58 163 -64 32 -3 69 -13 82 -22 13 -9 53 -18 87 -21 65 -6 88 -16 88 -39 0
-31 -127 -62 -183 -45 -17 5 -60 19 -94 29 -35 11 -63 19 -63 17 0 -7 112 -75
134 -81 40 -10 31 -30 -18 -43 -47 -11 -215 -6 -229 8 -4 4 -27 5 -49 1 -26
-5 -48 -4 -60 3 -13 9 -21 8 -30 -1 -14 -14 -58 -16 -58 -2 0 6 -7 10 -15 10
-18 0 -18 -5 -5 -31 6 -10 16 -19 23 -19 12 0 107 -60 159 -100 15 -11 39 -26
55 -33 15 -7 48 -26 72 -42 62 -43 59 -41 138 -76 40 -17 80 -40 89 -50 9 -11
22 -19 29 -19 7 0 33 -11 59 -25 26 -14 61 -25 77 -25 17 0 40 -5 52 -12 26
-13 96 -12 114 3 6 6 21 8 32 4 10 -3 22 -2 25 4 3 5 32 17 64 26 31 9 65 21
74 26 13 6 25 2 45 -16 40 -34 27 -51 -88 -120 l-34 -20 43 -3 c32 -2 42 -7
42 -20 0 -24 -59 -68 -109 -82 -46 -12 -256 -5 -305 11 -47 15 -41 4 12 -24
82 -43 124 -75 186 -140 60 -64 101 -131 91 -147 -10 -16 -34 -11 -44 8 -12
22 -118 98 -126 90 -3 -3 8 -18 24 -34 35 -36 91 -125 85 -136 -11 -18 -37 -5
-106 55 -73 62 -133 107 -142 107 -3 0 -29 15 -58 34 -30 18 -60 35 -68 37
-33 9 -127 66 -157 97 -17 17 -35 32 -38 32 -4 0 -20 11 -37 25 -16 14 -35 25
-42 25 -7 0 -33 17 -57 38 -51 44 -117 84 -128 78 -4 -3 -39 23 -77 58 -90 82
-218 182 -257 203 -36 18 -163 143 -222 218 -42 54 -104 115 -116 115 -4 0
-31 20 -59 44 -49 42 -57 45 -123 50 -40 2 -101 8 -137 11 -36 3 -120 7 -187
8 -67 1 -124 5 -128 9 -17 16 11 28 68 28 39 1 69 6 81 15 11 8 32 15 47 15
28 0 39 15 39 55 0 20 -7 25 -50 34 -28 6 -98 11 -155 11 -148 0 -137 30 20
55 40 7 118 29 230 65 116 38 252 45 285 15 11 -10 20 -22 20 -28 0 -25 75
-129 103 -143 37 -19 50 -32 66 -62 13 -25 208 -182 225 -182 31 1 41 26 42
105 0 44 4 101 8 126 8 55 75 164 106 172 24 6 52 67 52 114 0 88 128 150 193
93z"/>
<path d="M1083 2269 c-6 -6 -30 -12 -54 -13 -40 -2 -43 -4 -58 -44 -11 -30
-12 -51 -5 -79 9 -37 9 -37 96 -58 93 -23 128 -19 128 15 0 11 9 25 20 32 23
15 24 20 10 68 -14 52 -54 90 -93 90 -18 0 -38 -5 -44 -11z m82 -79 c41 0 52
-23 25 -50 -11 -11 -19 -23 -19 -27 3 -21 -2 -33 -16 -33 -8 0 -15 5 -15 10 0
6 -13 10 -29 10 -39 0 -56 22 -40 52 19 38 31 49 46 43 8 -3 30 -5 48 -5z"/>
<path d="M1690 1898 c0 -35 46 -80 105 -104 61 -25 95 -30 95 -16 0 10 -63 72
-74 72 -4 0 -22 11 -39 24 -41 32 -87 44 -87 24z"/>
<path d="M2506 1281 c-5 -8 17 -17 64 -27 42 -9 283 -13 275 -5 -6 5 -46 11
-90 12 -44 2 -93 7 -110 11 -49 14 -133 19 -139 9z"/>
</g>
</svg>
