<?xml version="1.0" standalone="no"?>
<!DOCTYPE svg PUBLIC "-//W3C//DTD SVG 20010904//EN"
 "http://www.w3.org/TR/2001/REC-SVG-20010904/DTD/svg10.dtd">
<svg version="1.0" xmlns="http://www.w3.org/2000/svg"
 width="468.000000pt" height="564.000000pt" viewBox="0 0 468.000000 564.000000"
 preserveAspectRatio="xMidYMid meet">

<g transform="translate(0.000000,564.000000) scale(0.100000,-0.100000)"
fill="#7f0f00" stroke="none">
<path d="M2456 5423 c-4 -5 -52 -6 -107 -4 -126 4 -210 -15 -364 -83 -88 -40
-201 -160 -256 -274 -40 -84 -42 -91 -47 -208 -4 -108 -2 -133 22 -227 14 -57
26 -112 26 -120 0 -9 15 -47 32 -84 24 -49 55 -90 111 -147 75 -74 79 -80 74
-113 -8 -45 -29 -69 -92 -100 -58 -30 -151 -111 -179 -157 -49 -81 -106 -163
-124 -179 -11 -10 -43 -21 -71 -26 -51 -8 -63 -15 -131 -77 -49 -45 -102 -50
-141 -13 -17 16 -29 37 -29 52 0 42 -20 83 -50 106 -38 27 -38 50 0 129 16 35
29 72 27 84 -1 11 5 25 15 31 15 10 58 -5 128 -45 8 -4 26 -14 40 -20 14 -7
30 -20 37 -28 6 -8 15 -12 19 -7 4 4 18 0 31 -8 22 -15 24 -14 53 26 33 46 32
52 -22 110 -18 20 -50 56 -70 81 -28 35 -48 48 -85 58 -26 7 -72 28 -101 47
-56 35 -118 61 -164 68 -15 2 -39 11 -53 21 -29 19 -167 26 -183 9 -6 -5 -13
-45 -17 -87 l-7 -78 29 -11 c15 -7 52 -15 81 -20 30 -4 61 -14 70 -22 10 -9
29 -18 44 -22 43 -11 54 -31 39 -68 -23 -55 -53 -161 -55 -192 -4 -63 -56
-106 -86 -70 -14 17 -5 35 16 35 24 0 10 25 -15 28 -42 6 -57 -18 -91 -145
-12 -47 -8 -109 10 -146 12 -24 11 -33 -8 -80 -12 -29 -22 -57 -22 -62 1 -6
21 -32 45 -59 40 -45 46 -48 79 -42 41 8 66 38 66 81 0 49 16 57 64 33 23 -11
43 -23 46 -25 3 -3 6 -53 7 -111 3 -220 13 -259 62 -247 14 4 71 13 125 20 87
12 106 12 145 -2 57 -19 65 -26 53 -49 -10 -20 7 -229 21 -251 10 -16 -3 -93
-16 -93 -15 0 -124 -115 -142 -151 -9 -16 -21 -29 -29 -29 -16 0 -52 -39 -60
-65 -3 -12 -26 -38 -51 -58 -25 -21 -45 -46 -45 -57 0 -10 -18 -33 -40 -50
-22 -17 -40 -40 -40 -50 0 -10 -11 -32 -25 -48 -14 -17 -25 -37 -25 -46 0 -22
-16 -20 -51 5 -38 27 -59 19 -59 -23 0 -18 -4 -39 -9 -47 -5 -8 -6 -24 0 -37
5 -14 5 -52 0 -91 -8 -62 -7 -70 11 -85 11 -10 38 -23 60 -30 l41 -12 -7 -65
c-4 -37 -9 -163 -12 -281 -6 -207 -7 -216 -30 -247 -13 -17 -49 -43 -81 -58
-32 -14 -67 -31 -78 -37 -17 -10 -117 -63 -234 -125 -25 -13 -58 -23 -75 -23
-51 -1 -94 -32 -130 -91 -33 -55 -33 -57 -32 -174 1 -108 3 -119 21 -126 11
-4 78 -25 150 -47 72 -22 198 -62 280 -87 83 -26 172 -53 199 -61 54 -17 122
-58 148 -90 10 -12 35 -25 55 -28 21 -4 74 -25 118 -46 144 -70 249 -101 370
-111 61 -4 123 -11 139 -15 22 -5 28 -4 24 7 -2 8 -33 23 -69 35 -35 11 -100
37 -143 57 -43 21 -82 37 -86 37 -4 0 -25 8 -46 17 -22 9 -41 17 -44 18 -52
14 -95 29 -138 50 -29 14 -65 27 -80 29 -15 1 -38 8 -50 15 -12 7 -27 9 -33 6
-5 -4 -29 6 -52 21 -47 32 -226 106 -238 98 -4 -2 -10 0 -13 5 -3 5 -32 17
-64 26 -31 9 -65 21 -74 26 -22 11 -203 61 -245 67 -50 7 -61 27 -64 116 -2
87 4 98 45 71 14 -9 63 -27 108 -40 46 -13 119 -37 163 -54 44 -17 109 -40
145 -50 36 -11 109 -36 163 -55 54 -20 102 -34 107 -31 4 3 13 -2 20 -10 7 -8
20 -15 29 -15 22 0 94 -26 144 -52 50 -25 174 -68 198 -68 9 0 22 -6 28 -14 7
-8 27 -18 44 -22 17 -3 57 -19 88 -35 31 -16 62 -29 68 -29 23 0 216 -83 238
-103 12 -10 26 -16 31 -13 5 3 32 -3 58 -15 82 -34 88 -37 124 -49 19 -7 44
-16 55 -20 61 -23 102 -39 118 -44 9 -3 17 -12 17 -21 0 -11 10 -15 36 -15 35
0 36 1 22 22 -23 35 -189 122 -253 132 -22 3 -62 17 -90 31 -27 13 -56 25 -64
25 -7 0 -28 9 -46 20 -18 11 -67 31 -109 45 -43 13 -97 35 -121 49 -24 15 -51
26 -60 26 -17 0 -241 82 -272 99 -27 15 -192 69 -236 77 -21 3 -52 16 -70 28
-67 44 -136 76 -165 76 -17 0 -33 4 -37 9 -3 5 -27 17 -53 27 -26 9 -75 27
-109 40 -34 13 -77 24 -96 24 -19 0 -54 9 -78 20 -24 11 -61 20 -81 20 -36 0
-37 1 -35 36 2 33 8 41 61 77 33 22 96 56 140 75 45 19 110 54 145 79 37 26
70 42 79 38 8 -3 21 3 29 15 26 37 53 20 53 -36 0 -26 29 -42 125 -71 66 -19
141 -68 149 -95 6 -24 -9 -48 -29 -48 -16 0 -38 -26 -63 -74 -17 -31 -18 -43
-10 -62 8 -17 8 -31 0 -48 -9 -21 -6 -28 21 -54 30 -29 35 -30 72 -22 22 5 53
10 69 10 17 0 39 9 51 20 21 20 24 20 71 4 27 -9 74 -29 104 -44 55 -28 56
-28 89 -10 l34 17 -72 28 c-40 15 -93 43 -117 62 l-45 34 -54 -26 c-30 -15
-58 -24 -64 -21 -5 4 -12 2 -16 -4 -9 -15 -68 -12 -92 5 -24 17 -25 43 -3 87
18 37 51 57 102 63 88 9 188 50 188 76 0 24 -27 36 -49 21 -42 -30 -114 -59
-133 -54 -18 4 -20 10 -15 56 3 28 11 132 17 231 6 99 15 218 20 265 6 47 10
114 10 150 0 78 8 110 26 110 26 0 32 -24 89 -350 7 -41 16 -89 20 -106 4 -20
3 -34 -5 -39 -8 -5 -6 -13 7 -27 9 -11 19 -36 20 -56 2 -36 11 -73 53 -213 11
-36 20 -73 20 -83 0 -25 24 -14 28 13 2 12 -4 46 -13 76 -14 43 -15 60 -6 86
14 40 14 37 -5 41 -18 3 -43 81 -44 137 0 18 -6 54 -14 80 -27 86 -48 176 -57
245 -5 37 -16 84 -24 103 -8 19 -12 46 -9 59 6 25 -23 63 -60 77 -19 7 -19 6
-6 120 7 63 7 99 -1 125 -21 71 0 107 89 153 12 7 22 17 22 22 0 11 65 77 75
77 4 0 15 10 25 23 13 16 22 19 30 11 19 -19 77 -292 67 -318 -3 -7 -1 -18 4
-23 19 -19 27 -404 11 -468 -11 -43 -10 -99 3 -128 5 -12 3 -24 -6 -33 -25
-24 -57 7 -64 64 -4 26 -15 76 -25 112 -17 64 -29 131 -50 280 -6 41 -17 111
-25 155 -8 45 -12 101 -9 128 5 36 3 47 -7 47 -20 0 -51 -122 -39 -154 11 -31
39 -164 50 -241 4 -33 15 -85 23 -115 14 -52 35 -162 42 -221 1 -14 8 -36 14
-47 6 -11 16 -56 21 -99 17 -126 17 -129 29 -149 22 -38 71 -251 72 -314 2
-119 1 -130 -18 -138 -25 -10 -26 -43 -4 -94 10 -24 16 -48 14 -55 -2 -6 9
-14 25 -18 32 -7 93 14 125 43 17 16 19 15 35 -5 9 -11 28 -24 42 -28 14 -4
70 -30 125 -57 93 -47 106 -51 210 -60 60 -5 155 -8 210 -6 93 3 101 5 110 25
13 30 30 29 52 -3 27 -40 105 -124 123 -134 18 -10 212 95 285 154 22 18 65
45 95 60 77 39 103 65 96 96 -2 14 -6 32 -8 42 -2 10 22 38 62 73 68 59 372
265 450 305 25 13 72 41 105 64 50 33 70 41 115 43 30 2 66 4 80 6 20 2 27 -4
36 -32 6 -19 20 -40 30 -48 25 -19 25 -61 -1 -79 -90 -63 -167 -110 -266 -162
-63 -34 -165 -94 -227 -134 -61 -40 -131 -86 -154 -101 -24 -15 -72 -50 -108
-77 -36 -27 -77 -59 -91 -70 -15 -11 -57 -36 -94 -55 -74 -40 -225 -143 -225
-154 0 -4 5 -12 11 -18 13 -13 107 30 198 91 31 21 65 36 82 36 23 0 45 15 97
66 37 36 81 73 97 81 17 9 63 38 103 65 41 28 149 87 240 133 115 57 174 93
189 113 12 16 64 52 115 80 110 59 145 91 129 118 -17 30 -51 123 -51 142 -1
9 -9 26 -18 38 -17 19 -23 20 -90 12 -40 -6 -79 -7 -87 -4 -20 7 -19 25 3 33
9 4 41 33 70 65 54 58 80 70 101 44 11 -13 33 -17 171 -32 51 -6 57 -4 82 23
33 35 58 109 58 172 l0 48 -125 84 c-218 145 -242 219 -155 493 29 94 39 138
34 163 -3 18 -12 33 -18 33 -7 0 -23 12 -37 26 -31 34 -84 57 -112 49 -70 -20
-142 -67 -162 -104 -14 -27 -2 -90 29 -152 9 -18 16 -38 16 -45 0 -24 -131
-47 -144 -26 -10 17 -29 210 -27 283 2 59 -1 79 -14 89 -10 8 -54 14 -123 17
-59 2 -134 5 -167 7 l-60 3 -6 49 c-3 27 -16 74 -28 104 -12 30 -33 116 -47
190 -70 391 -81 447 -93 468 -10 18 -27 119 -33 192 -1 8 -10 30 -20 48 -10
18 -16 37 -14 41 3 4 0 25 -5 47 -30 117 -41 163 -48 201 -4 24 -15 51 -24 61
-10 10 -17 27 -17 36 0 10 -7 42 -16 72 -12 41 -24 60 -52 81 -20 15 -60 49
-88 75 -29 26 -63 50 -77 54 -25 6 -77 62 -77 82 0 5 -12 15 -27 23 -28 15
-56 69 -47 91 3 7 35 38 71 68 105 88 153 138 153 158 0 11 11 44 24 73 33 72
52 247 36 328 -23 112 -62 237 -84 266 -12 17 -28 44 -34 60 -7 17 -36 55 -65
85 -41 44 -72 64 -149 98 -91 40 -145 51 -162 35z m76 -84 c105 -22 230 -134
295 -264 24 -49 61 -388 45 -408 -6 -7 -10 -29 -9 -49 1 -22 -6 -45 -16 -56
-9 -10 -17 -25 -17 -34 0 -8 -9 -23 -20 -33 -11 -10 -20 -24 -20 -31 0 -8 -11
-21 -25 -30 -14 -9 -25 -21 -25 -28 -1 -17 -57 -69 -69 -62 -5 4 -13 38 -17
77 -5 53 -13 78 -30 99 -13 15 -24 32 -24 38 0 5 -10 16 -22 25 -28 18 -18 42
28 66 45 24 79 54 93 80 16 29 7 83 -18 105 -10 10 -22 38 -26 64 -4 26 -10
52 -14 57 -5 6 -25 57 -46 115 -91 255 -81 245 -158 167 -66 -67 -87 -72 -87
-24 0 21 -8 41 -20 52 -19 17 -23 17 -53 3 -65 -31 -182 -126 -281 -226 -55
-57 -105 -111 -111 -120 -16 -28 -23 -135 -10 -152 17 -22 33 -117 45 -270 6
-74 18 -155 26 -179 27 -80 -14 -66 -61 21 -16 31 -38 64 -47 74 -9 11 -20 33
-24 49 -4 17 -12 41 -19 55 -18 35 -34 102 -46 190 -29 207 57 421 213 532 83
59 139 85 213 96 86 14 295 14 357 1z m-242 -124 c9 -11 11 -66 7 -223 l-6
-209 71 -28 c83 -33 148 -86 148 -121 0 -37 -19 -38 -88 -4 -34 16 -73 30 -87
30 -13 0 -26 4 -30 9 -10 17 -95 26 -273 29 -86 2 -93 4 -101 25 -5 12 -6 27
-4 34 7 18 109 45 178 48 l60 2 -2 124 c-4 169 7 214 60 261 48 42 50 43 67
23z m227 -35 c8 -25 27 -74 43 -110 38 -90 83 -237 75 -250 -3 -5 -12 -10 -18
-10 -7 0 -19 -15 -27 -33 -8 -17 -22 -33 -30 -34 -14 -3 -46 55 -96 177 -10
25 -28 61 -40 80 -12 19 -28 52 -35 72 -12 36 -12 37 42 97 30 33 58 59 63 57
4 -1 15 -22 23 -46z m-383 -102 c-4 -18 -10 -76 -13 -128 l-6 -94 -75 -14
c-117 -21 -126 -20 -133 10 -4 16 1 31 17 48 13 14 27 33 32 42 17 32 155 168
171 168 11 0 13 -7 7 -32z m238 -65 c9 -10 19 -29 23 -43 4 -14 30 -69 58
-122 41 -78 49 -100 39 -110 -10 -10 -16 -10 -30 0 -9 6 -45 26 -79 43 l-63
31 1 96 c1 115 16 145 51 105z m283 -243 c10 -17 -20 -56 -55 -70 -46 -19 -48
-5 -4 39 42 43 49 46 59 31z m-417 -123 c62 -12 64 -13 77 -51 8 -22 12 -43
10 -47 -3 -4 3 -24 12 -45 10 -22 18 -43 18 -49 2 -25 35 -60 98 -101 37 -25
67 -52 67 -59 0 -19 -105 -65 -147 -65 -19 0 -44 -5 -55 -11 -62 -33 -247 -42
-279 -13 -10 9 -19 21 -19 26 0 5 -12 25 -27 44 -33 44 -45 140 -21 158 9 6
17 20 19 31 3 11 12 21 21 23 15 3 17 -4 11 -62 l-6 -66 72 0 c39 0 71 4 71 9
0 18 -32 34 -71 34 -43 0 -62 18 -40 40 14 14 14 99 -1 132 -7 15 -19 25 -33
25 -12 0 -30 6 -40 14 -16 12 -17 16 -6 30 17 20 171 22 269 3z m164 -73 c-4
-43 -10 -54 -27 -54 -19 0 -21 60 -3 78 19 19 33 8 30 -24z m45 4 c16 -20 -7
-129 -27 -125 -23 4 -15 137 8 137 5 0 14 -6 19 -12z m-432 -18 c0 -18 -43
-26 -59 -10 -8 8 -7 13 4 20 21 14 55 8 55 -10z m492 -16 c4 -12 8 -13 13 -3
12 19 40 2 40 -25 0 -14 5 -28 11 -32 8 -4 8 -9 0 -17 -13 -13 -50 17 -53 42
0 9 -4 -6 -7 -34 -4 -37 -11 -51 -23 -53 -27 -5 -38 36 -26 91 10 48 32 63 45
31z m65 -131 c22 -20 26 -93 4 -93 -14 0 -46 67 -46 95 0 20 19 19 42 -2z
m-1617 -139 c51 -5 89 -18 182 -60 28 -13 55 -24 59 -24 4 0 30 -11 59 -26 48
-23 205 -164 205 -183 0 -5 -6 -14 -14 -21 -23 -18 -122 17 -148 53 -10 15
-24 27 -29 27 -6 0 -29 9 -51 20 -23 11 -47 20 -54 20 -7 0 -28 9 -46 19 -18
11 -82 34 -143 51 -145 42 -149 44 -141 82 8 43 25 61 50 53 12 -3 44 -8 71
-11z m1644 -64 c35 -63 27 -79 -54 -107 -38 -13 -106 -33 -150 -44 -44 -11
-108 -29 -142 -41 -64 -22 -80 -21 -70 6 10 24 136 112 181 127 23 7 48 18 56
25 20 16 132 73 146 74 6 0 20 -18 33 -40z m-411 -61 c45 1 82 0 82 -2 0 -2
-31 -25 -70 -52 l-69 -48 -50 24 c-52 25 -59 36 -40 71 9 16 16 18 37 12 15
-4 64 -6 110 -5z m-160 -87 c21 -21 50 -54 66 -75 31 -41 53 -45 113 -23 21 8
99 28 173 46 74 17 140 35 145 40 6 4 37 17 70 29 48 16 62 18 70 7 15 -19
145 -126 198 -163 53 -37 135 -137 143 -173 2 -14 11 -48 20 -77 8 -28 14 -55
12 -60 -1 -4 6 -40 15 -80 9 -40 17 -92 17 -115 0 -24 5 -49 12 -56 6 -6 20
-51 30 -99 22 -107 21 -103 3 -103 -20 0 -35 40 -35 94 0 25 -6 49 -14 55 -8
6 -16 24 -19 39 -14 69 -21 91 -43 149 -13 34 -31 97 -40 139 -21 100 -70 171
-145 208 -57 29 -60 30 -109 16 -31 -8 -41 -20 -70 -77 -32 -63 -36 -77 -42
-193 -4 -69 -8 -132 -9 -140 -1 -8 -7 -36 -14 -62 -7 -25 -12 -48 -9 -50 2 -3
-9 -29 -24 -59 l-27 -54 -57 -3 c-31 -2 -71 1 -90 6 -29 7 -34 13 -39 48 -3
21 -11 56 -19 76 -14 37 -13 38 27 86 65 76 83 112 83 162 0 47 -38 120 -63
120 -7 1 -30 9 -52 20 -45 22 -71 25 -80 9 -4 -5 -12 -8 -18 -6 -7 2 -25 0
-41 -4 -16 -5 -34 -6 -39 -2 -6 4 -41 6 -79 5 -72 -2 -117 -22 -118 -53 0 -8
-5 -20 -12 -27 -13 -13 -12 -90 1 -125 5 -13 23 -36 40 -53 44 -43 83 -122 70
-145 -5 -10 -9 -42 -9 -71 0 -42 6 -62 30 -97 17 -24 30 -50 30 -57 0 -14 -54
-42 -103 -53 -26 -6 -29 -11 -32 -57 -2 -27 0 -55 4 -62 4 -7 48 -13 115 -16
117 -5 140 -14 114 -43 -8 -10 -19 -36 -22 -58 -10 -52 -31 -85 -57 -85 -17 0
-18 -3 -9 -21 17 -30 -10 -67 -52 -71 -40 -4 -44 -29 -7 -42 42 -14 76 -1 84
34 4 16 10 32 15 35 11 7 55 101 64 135 8 34 60 95 74 86 6 -3 14 -26 17 -50
5 -33 2 -53 -13 -82 -11 -21 -23 -54 -27 -71 -3 -18 -10 -35 -15 -38 -12 -7
-50 -83 -50 -99 0 -8 6 -16 14 -19 17 -7 38 23 59 84 19 55 45 107 58 114 5 4
7 10 4 15 -12 20 16 50 45 50 39 0 39 -19 0 -75 -16 -24 -30 -49 -30 -55 0 -6
-13 -39 -29 -74 -17 -34 -33 -75 -37 -89 -3 -15 -15 -32 -25 -38 -11 -5 -19
-20 -19 -34 0 -38 -17 -73 -55 -110 -19 -20 -35 -43 -35 -52 0 -8 -35 -49 -77
-90 -123 -118 -138 -133 -212 -213 -51 -55 -72 -72 -81 -64 -16 15 -50 158
-55 227 -2 32 -9 64 -14 71 -17 20 -39 104 -45 176 -4 36 -10 92 -13 125 -11
100 -9 134 21 345 35 241 46 345 57 529 6 107 16 206 21 220 11 27 14 50 21
162 7 110 26 166 66 196 31 23 73 61 141 129 21 20 26 18 68 -24z m-893 -39
c-4 -21 -10 -42 -13 -48 -4 -5 -21 -55 -38 -110 -21 -67 -37 -101 -48 -103 -9
-2 -19 3 -22 12 -6 17 28 145 51 189 8 16 15 41 15 56 0 34 6 41 38 41 23 0
24 -2 17 -37z m585 -189 c0 -18 -62 -84 -80 -84 -6 0 1 16 16 35 14 19 30 35
35 35 5 0 9 7 9 15 0 8 5 15 10 15 6 0 10 -7 10 -16z m1093 -26 c9 0 25 -11
34 -24 15 -24 15 -28 -2 -56 -19 -32 -10 -48 27 -48 20 0 27 -10 51 -75 24
-64 37 -119 41 -170 2 -22 15 -71 30 -108 15 -38 25 -74 23 -80 -2 -7 4 -31
15 -55 26 -62 24 -87 -9 -100 -29 -12 -42 -13 -134 -15 -42 0 -65 5 -93 23
-21 13 -41 19 -46 14 -10 -11 -30 -114 -21 -114 12 0 28 15 34 33 6 15 13 17
44 11 65 -12 76 -21 70 -62 -8 -47 -14 -51 -81 -56 -75 -6 -86 -1 -86 39 0 18
-4 35 -9 37 -5 2 -18 37 -29 78 -19 73 -21 75 -60 90 -54 20 -56 24 -37 54 19
29 62 35 71 11 5 -12 25 -15 98 -14 111 0 160 14 164 48 3 22 1 23 -35 18 -21
-3 -60 -10 -86 -17 -64 -16 -97 -7 -97 25 0 23 8 42 61 148 23 47 25 100 3
122 -9 8 -13 22 -10 30 4 11 -2 15 -21 15 -24 0 -25 -2 -17 -32 4 -18 7 -54 7
-80 -2 -73 -55 -155 -77 -119 -3 4 -1 73 4 152 8 105 16 158 31 194 26 63 65
98 99 89 14 -4 33 -6 43 -6z m-1751 -83 c20 0 42 -5 48 -11 14 -14 31 -131 23
-161 -5 -24 -33 -32 -33 -10 0 7 -10 17 -22 22 -18 8 -23 19 -24 50 -1 60 -17
83 -52 77 -34 -5 -49 12 -31 34 8 9 19 12 33 7 12 -4 38 -8 58 -8z m-126 -9
c10 -27 -15 -57 -44 -54 -37 4 -39 49 -2 59 38 10 40 10 46 -5z m766 -26 c-1
-19 -2 -57 -2 -85 1 -49 -1 -51 -52 -90 -29 -23 -65 -49 -80 -58 -33 -21 -34
-33 -8 -67 15 -20 21 -23 32 -12 10 10 10 14 -1 21 -8 5 -12 15 -9 23 8 19 87
73 95 64 4 -4 -1 -62 -10 -129 -10 -67 -17 -141 -17 -165 0 -32 -4 -44 -17
-48 -10 -3 -54 -24 -97 -45 -44 -22 -82 -36 -86 -32 -4 4 -26 33 -49 63 -117
155 -143 181 -156 160 -4 -6 12 -31 34 -55 23 -25 47 -57 54 -73 6 -15 18 -32
27 -38 27 -21 -5 -41 -78 -47 -37 -4 -77 -9 -89 -13 -18 -5 -25 -1 -33 22 -12
30 -8 283 4 302 3 6 8 40 9 76 4 81 16 96 76 96 25 0 64 5 86 10 52 12 65 0
65 -61 0 -47 14 -130 47 -276 11 -47 21 -73 30 -73 11 0 13 19 9 98 -3 53 -10
113 -15 132 -33 121 -51 195 -51 215 0 38 23 48 90 40 55 -6 60 -5 60 12 0 12
11 25 28 32 15 7 38 19 52 26 40 22 55 14 52 -25z m571 4 c56 -8 92 -44 103
-101 8 -43 -2 -62 -42 -83 -16 -9 -36 -20 -44 -25 -50 -31 -247 5 -322 59 -39
28 -38 77 1 117 50 50 78 34 46 -27 -8 -17 -11 -32 -6 -37 15 -15 250 -33 269
-20 24 14 26 40 8 68 -20 31 -34 32 -38 3 -2 -19 -12 -24 -57 -31 -54 -9 -116
-3 -126 12 -3 5 -2 23 1 39 5 27 11 31 43 35 40 4 92 2 164 -9z m-1265 -74 c4
-39 -31 -163 -63 -225 -18 -34 -25 -40 -50 -38 -16 1 -35 9 -44 18 -14 13 -13
18 3 47 11 17 22 45 26 62 4 24 12 32 35 36 23 4 31 11 33 30 11 105 13 111
35 108 17 -2 23 -11 25 -38z m-93 20 c4 -6 3 -19 -1 -28 -4 -9 -8 -30 -8 -47
-1 -38 -28 -44 -50 -10 -16 24 -16 25 4 25 21 0 27 15 10 25 -5 3 -10 15 -10
26 0 14 7 19 24 19 14 0 28 -5 31 -10z m150 -109 c6 -12 22 -25 38 -28 30 -6
35 -30 17 -77 -12 -34 -27 -33 -72 4 -33 27 -36 34 -31 68 2 20 7 43 9 50 6
19 27 10 39 -17z m1062 -80 c45 -10 93 -16 107 -14 32 7 33 -6 4 -52 -17 -25
-30 -35 -50 -35 -15 0 -29 4 -33 9 -3 5 -20 13 -38 16 -38 8 -87 51 -87 77 0
22 -4 22 97 -1z m26 -118 c58 -16 79 -35 60 -54 -14 -14 -133 10 -140 27 -6
16 3 44 14 44 3 0 33 -7 66 -17z m133 -34 c3 -6 10 -43 15 -83 7 -59 5 -77 -9
-103 -9 -18 -21 -33 -26 -33 -5 0 -33 12 -63 26 -59 27 -65 50 -14 48 17 -1
31 2 31 7 0 5 -10 9 -22 9 -39 0 -68 12 -68 26 0 8 8 14 18 15 13 0 12 3 -5
11 -13 6 -23 17 -23 25 0 11 13 13 65 8 63 -5 65 -5 65 18 0 35 21 50 36 26z
m242 -143 c53 -1 67 -5 82 -24 18 -22 39 -96 46 -159 6 -64 -48 -69 -131 -11
-101 71 -115 78 -115 57 0 -14 53 -79 64 -79 5 0 23 -11 41 -24 17 -13 44 -26
60 -28 16 -1 30 -9 33 -15 3 -10 -14 -13 -60 -14 -34 -1 -99 -2 -143 -3 l-80
-1 0 35 c0 19 -3 40 -6 45 -4 6 -5 24 -3 40 2 17 6 62 9 100 9 102 6 98 78 90
34 -4 91 -8 125 -9z m-360 -50 c35 -18 76 -62 69 -74 -4 -4 -46 -7 -94 -6
-126 3 -120 2 -95 20 12 8 37 28 54 45 38 34 32 33 66 15z m-552 -68 c-12
-106 -16 -165 -20 -253 -2 -68 -6 -90 -17 -90 -9 0 -17 24 -26 75 -23 138 -35
250 -30 265 6 13 69 51 91 54 5 1 6 -23 2 -51z m1444 2 c0 -5 7 -7 15 -4 9 4
18 -1 21 -11 10 -25 -14 -95 -32 -95 -12 0 -14 9 -10 48 l5 47 -10 -45 c-6
-25 -13 -55 -15 -67 -2 -13 -11 -23 -20 -23 -13 0 -15 10 -9 68 4 37 12 73 17
80 12 14 38 16 38 2z m-84 -35 c10 -24 -6 -85 -22 -92 -23 -8 -40 13 -25 30 6
8 9 22 5 31 -6 17 11 46 28 46 5 0 11 -7 14 -15z m-753 -14 c40 -1 47 -4 47
-21 0 -19 -7 -20 -123 -19 -126 1 -166 9 -137 29 8 6 23 8 32 6 10 -2 20 0 23
4 3 5 29 7 58 5 28 -2 73 -4 100 -4z m926 -113 c14 -54 13 -60 -15 -162 -16
-58 -34 -106 -39 -106 -11 0 -45 71 -45 93 0 7 9 47 20 88 11 41 20 85 20 100
0 27 18 51 34 46 6 -2 17 -29 25 -59z m-87 -25 c-6 -57 -17 -83 -37 -83 -22 0
-26 16 -10 46 8 16 15 38 15 50 0 23 8 34 25 34 9 0 11 -14 7 -47z m-131 -10
c16 -27 35 -66 41 -88 6 -22 17 -47 24 -55 7 -8 16 -28 20 -45 4 -16 12 -39
18 -50 10 -19 16 -39 50 -170 28 -106 22 -275 -10 -275 -8 0 -14 5 -14 10 0
26 -17 5 -33 -40 -10 -27 -22 -50 -26 -50 -5 0 -16 -17 -24 -37 -8 -21 -24
-47 -36 -57 -12 -11 -21 -24 -21 -30 0 -12 -112 -126 -124 -126 -4 0 -28 -14
-52 -31 -25 -17 -48 -28 -52 -25 -3 4 -22 -9 -41 -27 -28 -27 -50 -37 -101
-46 -36 -7 -83 -17 -106 -23 -23 -5 -52 -8 -65 -6 -24 3 -49 -28 -49 -65 0
-15 8 -16 73 -11 39 4 104 18 142 31 39 13 79 26 90 27 11 2 57 27 102 55 46
28 85 51 88 51 14 0 85 64 85 77 0 7 7 13 15 13 8 0 15 6 15 13 0 16 84 107
99 107 22 0 16 -47 -9 -75 -9 -11 -25 -36 -34 -56 -9 -20 -25 -45 -34 -55 -10
-11 -34 -48 -54 -84 -20 -36 -54 -86 -75 -110 -21 -25 -47 -62 -58 -83 -10
-21 -32 -49 -47 -62 -15 -13 -28 -28 -28 -34 0 -6 -16 -21 -35 -33 -19 -13
-35 -26 -35 -30 0 -11 -60 -97 -74 -105 -7 -5 -29 -30 -50 -58 -31 -41 -36
-55 -31 -81 3 -20 1 -35 -8 -43 -20 -16 -41 11 -64 79 -10 30 -30 73 -44 95
-26 42 -42 73 -59 115 -5 14 -14 32 -18 40 -25 43 -46 83 -83 158 -23 46 -52
94 -65 107 -13 13 -24 33 -24 45 0 11 -7 32 -16 45 -19 29 -15 70 6 69 11 -1
15 10 15 45 0 44 -1 46 -31 49 -29 3 -33 0 -53 -51 -22 -54 -22 -127 0 -127
17 0 40 -72 28 -86 -14 -17 -3 -34 22 -34 14 0 19 -7 19 -25 0 -15 6 -25 15
-25 17 0 39 -36 29 -51 -3 -6 5 -23 18 -37 36 -40 98 -167 98 -202 0 -20 5
-30 15 -30 8 0 22 -17 30 -37 9 -21 29 -58 45 -84 17 -25 30 -51 30 -58 0 -7
9 -26 21 -42 12 -18 18 -37 14 -48 -4 -14 0 -23 15 -31 21 -11 27 -44 10 -55
-19 -12 -10 -25 14 -19 20 5 27 -1 48 -38 13 -24 30 -59 38 -78 8 -19 25 -50
37 -69 25 -37 25 -56 0 -56 -8 0 -19 -4 -24 -8 -11 -12 19 -28 43 -22 28 6 55
-25 60 -67 2 -18 13 -41 25 -51 23 -18 49 -58 74 -115 17 -36 22 -38 49 -17
18 13 17 21 -3 55 -26 44 -61 120 -61 132 0 8 -16 36 -36 61 -31 40 -35 49
-24 62 7 9 23 15 34 14 12 -1 35 1 51 5 17 5 75 19 129 32 55 14 106 30 113
36 17 14 63 -5 63 -26 0 -9 9 -20 21 -26 12 -7 18 -18 15 -26 -3 -8 -1 -14 3
-14 25 0 81 -156 65 -181 -3 -5 -14 -9 -24 -9 -10 0 -21 -4 -24 -9 -8 -13
-132 -71 -151 -71 -8 0 -21 -11 -27 -25 -6 -14 -17 -25 -23 -25 -7 0 -30 -13
-51 -28 -52 -38 -92 -45 -119 -22 -71 64 -170 147 -188 157 -11 6 -27 23 -34
37 -8 14 -20 26 -29 26 -8 0 -30 15 -48 33 -70 66 -205 167 -226 167 -6 0 -18
4 -28 9 -9 5 -25 12 -35 15 -16 5 -18 12 -12 47 7 39 6 40 -16 37 -17 -2 -30
-16 -45 -48 -25 -53 -21 -61 42 -89 24 -11 59 -31 77 -45 19 -14 38 -26 44
-26 17 0 103 -61 103 -73 1 -7 41 -38 91 -70 73 -48 90 -63 87 -80 -3 -21 -7
-22 -123 -22 -97 1 -134 5 -195 24 -197 61 -274 94 -267 114 2 8 40 15 102 19
53 4 100 9 103 12 18 19 -65 61 -89 45 -8 -5 -29 -9 -47 -9 -18 0 -40 -4 -50
-9 -31 -17 -100 -34 -110 -27 -5 3 -30 -11 -55 -30 -25 -20 -51 -33 -56 -29
-22 13 -3 77 31 106 18 16 36 28 41 29 4 0 7 5 7 10 0 6 18 35 40 64 22 29 40
56 40 60 0 4 9 19 20 34 26 37 37 82 19 82 -8 0 -21 -11 -29 -24 -42 -66 -124
-166 -136 -166 -9 0 -14 13 -15 38 0 20 -3 111 -5 202 -8 304 -9 734 -3 828
l6 93 74 72 c41 40 92 88 114 107 22 19 83 73 136 120 53 47 115 101 138 120
50 42 193 140 203 140 16 0 39 -79 43 -148 4 -67 3 -75 -15 -79 -20 -5 -26
-23 -13 -36 3 -4 12 -2 19 4 8 7 14 7 19 -1 3 -5 22 -10 41 -10 29 0 34 3 34
25 0 33 -27 135 -41 151 -6 7 -8 18 -4 25 4 6 2 22 -6 35 -35 66 51 41 126
-35 45 -47 65 -52 65 -16 0 50 -102 119 -192 130 -42 5 -58 12 -58 22 0 13 20
14 130 12 129 -4 130 -4 130 19 0 17 -6 22 -27 23 -16 0 -41 2 -58 3 -34 3
-130 -11 -160 -24 -11 -5 -34 -12 -52 -15 -20 -4 -51 -27 -87 -63 -44 -45 -58
-54 -68 -44 -10 10 -9 18 4 40 8 15 21 45 28 67 17 56 34 93 97 223 42 87 61
116 82 124 15 6 65 7 121 4 100 -6 113 -3 136 39 8 14 22 20 45 20 l34 0 0
-64 c1 -38 5 -66 12 -68 12 -4 27 62 18 77 -3 5 1 23 10 40 23 44 50 39 86
-17z m263 -95 c2 -7 11 -38 21 -68 9 -30 25 -77 36 -103 22 -53 19 -68 -11
-49 -30 18 -32 15 -25 -27 8 -50 -38 -211 -60 -211 -11 0 -15 12 -15 44 0 24
-7 76 -16 116 -16 70 -16 76 5 174 12 55 25 109 27 119 6 20 33 23 38 5z
m-1653 -185 c1 -10 3 -37 4 -61 2 -23 12 -61 23 -85 41 -86 39 -97 -25 -147
-31 -25 -75 -63 -98 -85 -23 -22 -67 -64 -99 -93 -56 -53 -65 -69 -46 -88 5
-5 6 -15 0 -24 -8 -13 -15 -12 -57 3 -40 16 -101 35 -162 53 -17 5 -10 23 31
79 18 24 45 48 60 54 14 5 31 19 38 30 6 12 17 21 25 21 8 0 15 5 15 11 0 6
11 25 24 42 12 18 29 48 37 68 8 20 37 61 64 92 28 31 58 67 68 81 10 14 26
26 37 26 10 0 22 9 25 20 8 25 35 26 36 3z m1764 -155 c1 -15 4 -30 8 -34 22
-22 -18 -128 -52 -139 -11 -3 -23 -14 -26 -24 -7 -22 -62 -64 -75 -56 -16 10
-11 29 15 54 14 13 25 33 25 45 0 11 11 41 25 65 14 23 25 48 25 55 0 7 6 24
13 39 15 34 42 31 42 -5z m148 -133 c43 -8 94 -15 113 -15 19 0 34 -5 34 -11
0 -17 -70 -111 -109 -144 -18 -16 -51 -47 -72 -67 -21 -21 -44 -38 -51 -38 -7
-1 -26 -17 -43 -37 -44 -53 -173 -181 -201 -199 -13 -9 -24 -21 -24 -27 0 -6
-22 -34 -49 -62 -126 -130 -121 -122 -115 -179 5 -43 10 -122 13 -189 1 -15 7
-16 41 -11 47 8 47 9 22 -114 -18 -91 -10 -81 -115 -134 -33 -16 -40 1 -33 76
4 39 9 154 13 256 l6 185 48 62 c27 35 49 71 49 81 0 11 9 27 20 37 11 10 20
25 20 33 0 8 14 37 30 64 17 26 30 52 30 56 0 4 11 29 25 56 14 27 25 57 25
65 0 23 28 61 45 61 8 0 34 14 58 30 25 17 49 30 55 30 14 0 52 67 52 91 0 23
17 59 28 59 4 0 42 -7 85 -15z m239 -101 c4 -16 5 -41 2 -57 -3 -15 2 -46 11
-70 23 -61 17 -111 -14 -115 -13 -2 -28 2 -33 10 -7 10 -12 8 -26 -11 -9 -13
-30 -37 -45 -54 -16 -16 -35 -41 -44 -54 -9 -13 -25 -23 -39 -23 -13 0 -24 -4
-24 -8 0 -12 -86 -102 -97 -102 -5 0 -34 -25 -64 -55 -30 -30 -58 -55 -63 -55
-4 0 -33 -23 -64 -51 -31 -28 -74 -63 -97 -77 -22 -13 -49 -36 -61 -50 -32
-39 -47 -25 -51 47 l-4 63 63 72 c78 89 162 169 211 203 20 14 37 30 37 35 0
14 373 386 384 384 6 -1 14 -16 18 -32z m388 -12 c19 -9 41 -30 48 -45 18 -36
8 -111 -18 -137 -10 -10 -21 -27 -25 -39 -3 -11 -25 -35 -48 -53 -110 -87
-162 -148 -126 -148 6 0 38 25 71 55 32 30 63 55 67 55 5 0 14 -7 21 -15 17
-20 -6 -46 -80 -89 -52 -31 -69 -55 -43 -63 6 -2 28 10 48 28 28 25 39 29 48
20 11 -11 1 -48 -38 -143 -4 -11 -3 -18 4 -18 6 0 11 6 11 14 0 22 40 66 61
66 26 0 24 -13 -11 -77 -27 -50 -31 -73 -12 -73 4 0 13 13 19 30 12 33 39 48
55 32 6 -6 1 -23 -16 -51 -14 -22 -26 -47 -26 -56 0 -27 28 -16 39 17 12 33
38 68 52 68 5 0 13 -9 19 -20 8 -15 4 -29 -20 -68 -31 -51 -39 -92 -17 -92 7
0 19 20 26 44 15 50 43 81 66 72 30 -11 29 -39 -3 -97 -28 -51 -31 -69 -12
-69 4 0 17 23 29 51 23 53 42 68 63 50 7 -6 24 -20 38 -30 23 -17 24 -21 10
-45 -10 -20 -11 -29 -2 -38 23 -23 13 -49 -22 -63 -35 -15 -91 -11 -102 6 -3
5 -10 7 -15 3 -23 -14 -139 61 -139 90 0 5 -11 24 -24 41 -14 18 -28 44 -31
58 -4 14 -13 28 -21 31 -7 3 -27 31 -44 63 -40 77 -87 149 -129 201 -37 45
-69 54 -92 26 -20 -25 -117 -84 -137 -84 -24 0 -49 89 -33 118 19 36 80 81
118 87 21 4 49 10 63 15 14 4 45 8 69 8 124 2 202 56 215 149 7 52 -6 76 -38
71 -19 -3 -21 -10 -21 -62 0 -34 -5 -61 -11 -63 -14 -5 -60 63 -68 100 -5 23
-1 33 26 57 38 35 84 39 138 12z m-3052 -129 c9 -10 49 -28 87 -39 39 -12 95
-31 125 -42 l55 -20 3 -83 c2 -52 -1 -92 -9 -106 -13 -24 -38 -30 -54 -14 -6
5 -45 20 -87 34 -42 14 -89 34 -104 44 -16 10 -35 17 -44 15 -34 -6 -43 22
-30 97 6 39 9 75 5 80 -7 13 12 51 25 51 6 0 18 -8 28 -17z m141 -330 c36 -20
74 -38 84 -38 29 -3 36 -17 43 -93 6 -59 4 -75 -9 -90 -9 -10 -16 -31 -16 -48
0 -16 0 -51 1 -79 1 -72 1 -175 -2 -287 -2 -78 -6 -98 -17 -98 -29 0 -53 21
-53 45 0 26 -9 32 -25 16 -6 -6 -33 -5 -70 3 l-60 12 -3 68 c-2 49 2 79 14
104 21 44 21 181 2 472 -4 62 19 65 111 13z m2657 -20 c10 -16 30 -41 46 -56
15 -16 28 -33 28 -39 0 -5 13 -27 28 -47 16 -20 44 -66 63 -103 l34 -67 -35
-36 c-19 -20 -60 -52 -90 -73 -30 -20 -65 -45 -76 -55 -13 -10 -40 -19 -65
-20 -39 -2 -44 1 -47 21 -3 19 1 22 30 22 18 0 44 8 58 18 59 40 160 125 160
134 0 17 -21 51 -87 141 -43 57 -63 93 -59 103 5 14 1 16 -25 10 -17 -3 -38
-14 -47 -25 -9 -10 -41 -35 -70 -55 -64 -42 -87 -70 -96 -112 -8 -35 10 -117
32 -152 11 -17 12 -26 3 -35 -16 -16 -34 5 -65 79 -58 140 -16 227 152 315 31
17 64 37 72 45 21 21 36 17 56 -13z m-292 -18 c45 -19 45 -33 2 -67 -28 -22
-36 -39 -49 -96 -16 -70 -16 -70 12 -150 42 -119 77 -175 125 -200 52 -28 78
-28 169 1 65 21 173 87 192 117 8 13 42 13 50 0 9 -14 -23 -70 -40 -70 -8 0
-15 -8 -15 -17 0 -17 -27 -53 -40 -53 -4 0 -27 -18 -51 -40 -24 -22 -50 -40
-57 -40 -7 0 -36 -17 -65 -38 -29 -22 -65 -46 -82 -56 -35 -19 -48 -28 -184
-119 -56 -37 -109 -77 -119 -87 -9 -11 -21 -20 -26 -20 -11 0 -113 -67 -121
-80 -10 -16 -45 -12 -45 5 0 9 -7 26 -15 39 -11 17 -17 62 -21 162 -3 76 -8
148 -11 159 -3 11 -7 39 -8 62 -2 51 -9 60 -30 43 -9 -7 -18 -10 -22 -6 -10 9
-10 218 -1 238 4 9 31 33 60 54 29 21 72 54 95 73 23 20 55 46 70 59 131 107
175 142 182 142 5 0 25 -7 45 -15z m243 -137 c-3 -8 -6 -5 -6 6 -1 11 2 17 5
13 3 -3 4 -12 1 -19z m-64 -125 c4 -74 3 -114 -4 -119 -23 -14 -99 81 -99 124
0 45 72 136 90 115 4 -4 10 -58 13 -120z m26 37 c-1 -75 -6 -63 -12 28 -2 34
0 57 5 50 4 -7 7 -42 7 -78z m92 79 c20 -10 21 -28 3 -91 -9 -30 -34 -22 -33
10 1 15 -2 42 -6 60 -8 35 1 40 36 21z m-1004 -231 c-6 -223 -19 -277 -70
-296 -55 -20 -70 -16 -63 16 3 15 9 70 12 122 3 52 10 99 14 103 4 5 4 24 -2
43 -8 32 -5 41 36 106 25 39 46 75 46 80 0 4 7 8 16 8 15 0 16 -19 11 -182z
m1065 126 c10 -21 9 -27 -3 -35 -22 -14 -34 -5 -37 29 -4 40 23 44 40 6z
m-1228 -219 c-1 -84 -11 -192 -20 -206 -12 -20 -13 -91 -1 -106 5 -8 6 -36 2
-68 -5 -45 -10 -55 -25 -55 -22 0 -50 36 -50 63 0 11 -11 33 -25 49 -17 19
-23 37 -20 49 5 13 1 19 -9 19 -9 0 -24 16 -33 36 -17 34 -17 37 0 49 9 7 17
16 17 20 0 4 30 50 67 101 74 105 98 117 97 49z m420 -134 c3 -5 8 -59 11
-121 7 -121 1 -140 -41 -140 -13 0 -58 -11 -100 -25 -83 -27 -164 -33 -164
-12 0 7 34 49 75 94 58 63 84 84 110 89 19 3 35 10 35 14 0 10 -26 20 -50 20
-20 0 -206 -183 -227 -224 -8 -14 -20 -26 -28 -26 -12 0 -15 18 -15 94 0 102
4 111 59 122 17 4 34 11 37 15 3 5 12 9 20 9 15 0 157 60 204 86 29 15 66 18
74 5z"/>
<path d="M2190 4560 c-15 -15 -20 -33 -20 -74 0 -46 3 -54 21 -59 15 -4 23 0
26 14 6 20 28 26 38 9 3 -5 1 -18 -4 -28 -14 -26 -5 -32 29 -21 23 8 29 17 33
51 4 27 1 51 -9 67 l-14 26 6 -27 c5 -21 2 -28 -8 -28 -29 0 -78 22 -78 35 0
22 27 37 52 29 20 -6 21 -5 9 10 -18 22 -57 20 -81 -4z"/>
<path d="M2060 4296 c0 -8 18 -15 48 -19 26 -3 55 -9 65 -12 12 -5 17 -2 17 9
0 20 -8 23 -77 30 -40 4 -53 2 -53 -8z"/>
<path d="M2100 4230 c0 -5 20 -10 45 -10 25 0 45 5 45 10 0 6 -20 10 -45 10
-25 0 -45 -4 -45 -10z"/>
<path d="M1789 3468 c-1 -84 -1 -189 0 -233 6 -324 2 -586 -9 -599 -8 -11 -8
-20 -1 -35 6 -11 11 -29 11 -41 0 -12 20 -45 45 -73 25 -29 45 -56 45 -61 0
-4 12 -24 28 -42 72 -89 82 -102 82 -108 0 -3 -20 -6 -45 -6 -53 0 -57 -10
-12 -34 37 -21 86 -18 100 5 19 31 2 64 -95 187 -21 26 -38 56 -38 67 0 11
-13 34 -29 51 -27 29 -30 38 -31 108 -2 98 -2 107 0 131 0 11 -1 88 -4 170 -2
83 -1 179 3 215 5 36 4 70 0 76 -5 5 -7 41 -5 80 5 107 -14 294 -30 294 -11 0
-14 -32 -15 -152z"/>
<path d="M2530 2694 c-46 -58 -110 -162 -110 -178 0 -16 28 -3 37 17 6 12 33
49 60 82 47 58 93 126 93 139 0 3 -6 6 -14 6 -8 0 -37 -30 -66 -66z"/>
<path d="M2892 2698 c-19 -71 -25 -118 -14 -118 5 0 13 8 17 17 8 21 20 143
14 143 -3 0 -10 -19 -17 -42z"/>
<path d="M2946 2528 c-30 -65 -39 -128 -20 -135 6 -2 21 28 34 69 13 40 30 82
37 94 13 21 9 34 -12 34 -6 0 -24 -28 -39 -62z"/>
<path d="M2973 2355 c-19 -34 -29 -63 -26 -75 8 -31 23 -20 43 32 41 109 34
129 -17 43z"/>
<path d="M2740 2381 c-24 -7 -42 -41 -22 -41 6 0 13 -13 17 -30 3 -16 15 -32
25 -35 17 -5 18 -13 13 -68 -4 -50 -2 -65 11 -76 14 -12 18 -9 32 25 23 54 13
141 -22 194 -15 22 -27 40 -28 39 0 -1 -12 -4 -26 -8z"/>
<path d="M2971 2190 c-42 -62 -52 -100 -27 -100 19 0 61 77 69 123 3 21 4 37
3 37 -2 0 -22 -27 -45 -60z"/>
<path d="M1936 1638 c-9 -24 -20 -63 -25 -88 -5 -25 -11 -52 -14 -60 -7 -15
19 -58 28 -48 3 3 13 45 21 94 9 49 18 101 21 117 8 42 -13 32 -31 -15z"/>
<path d="M2001 1493 c-7 -43 -20 -86 -28 -95 -23 -26 -13 -63 17 -63 20 -1 25
-5 23 -25 -4 -43 7 -92 20 -87 6 2 17 32 24 68 8 35 17 80 21 99 8 36 -3 80
-21 80 -5 0 -7 -9 -4 -21 7 -27 -1 -49 -19 -49 -19 0 -19 75 -1 92 11 9 11 20
4 45 -6 18 -13 33 -17 33 -3 0 -12 -35 -19 -77z"/>
<path d="M2120 1325 c0 -19 -6 -49 -14 -67 -24 -56 -39 -115 -32 -127 13 -21
24 -11 35 32 5 23 17 69 25 102 20 76 20 95 1 95 -10 0 -15 -11 -15 -35z"/>
<path d="M2189 1268 c0 -2 -2 -44 -4 -94 -2 -53 -10 -106 -19 -128 -18 -44
-20 -56 -7 -56 14 0 54 140 56 198 1 29 5 55 8 59 13 12 7 23 -13 23 -11 0
-20 -1 -21 -2z"/>
<path d="M2256 1068 c-3 -13 -6 -38 -6 -57 0 -19 -7 -42 -16 -52 -10 -11 -17
-41 -19 -83 l-4 -65 34 2 c36 2 41 7 25 23 -6 6 -4 31 5 69 19 80 20 185 1
185 -7 0 -16 -10 -20 -22z"/>
<path d="M2357 903 c-4 -3 -7 -18 -7 -33 0 -14 -4 -30 -9 -35 -4 -6 -14 -32
-20 -58 -9 -37 -9 -52 0 -63 17 -20 31 -17 24 6 -3 11 5 51 20 91 24 68 27 99
7 99 -5 0 -12 -3 -15 -7z"/>
<path d="M2945 660 c-3 -5 1 -24 9 -42 9 -17 16 -40 16 -50 0 -23 29 -36 40
-18 11 18 -24 114 -43 118 -8 2 -18 -2 -22 -8z"/>
<path d="M2858 643 c-10 -3 -18 -9 -18 -14 0 -5 -8 -9 -17 -9 -19 -1 -53 -22
-53 -34 0 -4 8 -19 18 -33 9 -15 17 -41 17 -58 0 -25 4 -30 28 -33 33 -4 33 1
2 57 -14 23 -25 52 -25 62 0 34 24 20 53 -31 31 -55 65 -70 51 -22 -4 15 -8
44 -9 65 -1 40 -16 57 -47 50z"/>
<path d="M2600 511 c0 -5 5 -13 10 -16 6 -3 10 -2 10 4 0 5 -4 13 -10 16 -5 3
-10 2 -10 -4z"/>
<path d="M3374 4979 c-68 -35 -69 -36 -78 -66 -5 -16 -1 -25 14 -33 17 -9 28
-7 58 11 60 35 144 37 249 4 48 -15 111 -37 138 -50 105 -48 271 -114 299
-118 55 -9 147 11 225 49 42 21 88 38 103 38 30 1 30 1 46 39 13 30 6 53 -26
90 -15 17 -18 15 -56 -21 -48 -45 -134 -107 -162 -116 -10 -3 -50 -8 -88 -11
-76 -5 -131 12 -188 60 -16 14 -42 28 -56 31 -15 3 -47 15 -72 26 -108 49
-138 62 -195 79 -88 28 -142 25 -211 -12z"/>
<path d="M217 4973 c-29 -3 -41 -10 -49 -29 -16 -34 0 -47 40 -33 29 10 148 8
202 -4 24 -6 128 -41 252 -86 32 -12 77 -21 100 -21 24 0 57 -7 73 -16 21 -12
65 -18 141 -22 104 -4 113 -3 133 17 36 36 27 45 -36 37 -70 -9 -69 -9 -163 3
-115 14 -224 46 -272 79 -41 28 -75 36 -193 48 -27 3 -69 12 -93 20 -42 14
-59 15 -135 7z"/>
<path d="M3557 3953 c-24 -12 -54 -59 -45 -68 2 -2 37 -10 78 -19 42 -8 106
-31 144 -51 41 -21 82 -35 104 -35 20 0 56 -5 80 -10 65 -15 128 -21 226 -21
105 1 139 16 134 59 -3 30 8 29 -173 22 -97 -3 -202 5 -219 18 -6 5 -40 19
-76 32 -36 12 -84 34 -108 47 -23 14 -49 23 -56 20 -8 -3 -20 1 -26 9 -15 17
-26 16 -63 -3z"/>
<path d="M642 2925 c-12 -9 -59 -27 -104 -41 -70 -21 -95 -24 -158 -19 -135
11 -159 10 -176 -7 -22 -21 -11 -48 19 -48 13 0 29 -6 36 -12 8 -9 49 -13 129
-13 131 0 158 8 250 77 68 50 72 110 4 63z"/>
</g>
</svg>
