<?xml version="1.0" standalone="no"?>
<!DOCTYPE svg PUBLIC "-//W3C//DTD SVG 20010904//EN"
 "http://www.w3.org/TR/2001/REC-SVG-20010904/DTD/svg10.dtd">
<svg version="1.0" xmlns="http://www.w3.org/2000/svg"
 width="479.000000pt" height="861.000000pt" viewBox="0 0 479.000000 861.000000"
 preserveAspectRatio="xMidYMid meet">

<g transform="translate(0.000000,861.000000) scale(0.100000,-0.100000)"
fill="#00447F" stroke="none">
<path d="M2365 8570 c-3 -5 -36 -9 -73 -9 -37 0 -85 -4 -107 -10 -22 -5 -64
-13 -93 -16 -63 -7 -174 -56 -272 -119 -39 -25 -73 -46 -75 -46 -3 0 -31 -20
-64 -45 -56 -42 -171 -180 -171 -204 0 -17 -41 -103 -58 -124 -8 -9 -21 -47
-29 -85 -20 -104 -29 -142 -48 -207 -21 -72 -34 -407 -17 -427 5 -7 13 -37 16
-65 3 -29 9 -61 14 -70 6 -10 13 -38 17 -63 4 -25 15 -56 24 -70 10 -14 24
-41 31 -60 7 -19 17 -39 22 -44 4 -6 8 -19 8 -30 1 -42 53 -113 181 -244 31
-32 32 -34 24 -100 -5 -37 -8 -76 -7 -87 2 -37 18 -134 22 -138 3 -2 52 -15
110 -28 97 -22 105 -26 107 -49 3 -29 -9 -47 -54 -79 -18 -12 -33 -28 -33 -34
0 -7 -9 -27 -20 -45 l-21 -33 -33 20 c-48 30 -68 26 -127 -24 -29 -25 -61 -45
-71 -45 -23 0 -128 -103 -128 -126 0 -9 -11 -30 -25 -48 -63 -77 -105 -136
-105 -149 0 -7 -4 -17 -9 -23 -33 -34 -102 -195 -115 -269 -4 -22 -16 -53 -26
-70 -9 -16 -20 -47 -23 -68 -8 -53 -39 -116 -57 -117 -8 0 -25 -8 -38 -18 -21
-16 -23 -26 -25 -141 -1 -95 -5 -125 -16 -129 -7 -2 -40 -29 -72 -60 -52 -48
-60 -60 -59 -91 2 -148 -1 -195 -11 -207 -20 -25 -4 -118 29 -166 16 -24 41
-66 55 -94 14 -28 37 -58 51 -67 25 -17 115 -122 170 -201 16 -22 67 -91 113
-153 94 -124 111 -136 225 -148 l68 -7 -17 -32 c-10 -17 -25 -40 -35 -51 -9
-11 -24 -42 -33 -70 -10 -27 -25 -61 -35 -75 -37 -54 -109 -288 -127 -412 -6
-42 -18 -48 -111 -48 -67 0 -177 -27 -350 -88 -80 -27 -106 -41 -112 -58 -5
-12 -17 -28 -27 -35 -10 -8 -44 -50 -75 -94 -31 -44 -68 -96 -83 -115 -83
-111 -165 -236 -165 -251 0 -10 -9 -34 -21 -53 -17 -29 -19 -45 -14 -88 3 -29
8 -82 10 -118 5 -95 59 -291 109 -395 24 -49 49 -112 56 -140 15 -58 53 -138
78 -163 36 -38 80 -99 111 -157 73 -135 94 -271 87 -587 -4 -244 -10 -226 74
-258 19 -7 49 -19 65 -25 45 -19 153 -52 215 -65 30 -7 86 -31 123 -52 76 -44
103 -54 194 -68 49 -8 70 -7 100 5 21 8 65 18 98 23 69 11 266 6 328 -8 23 -5
93 -21 156 -36 131 -30 144 -27 222 43 23 21 77 63 120 93 42 30 112 82 155
115 42 33 84 65 93 70 9 6 20 17 25 25 13 22 125 130 135 130 12 0 19 21 31
98 12 71 31 102 63 102 11 0 30 10 42 23 22 22 116 101 210 177 27 22 54 40
59 40 5 0 33 18 62 40 29 22 62 40 72 40 35 0 40 20 31 125 -4 55 -11 168 -14
250 -6 158 -29 462 -45 605 -26 229 -30 274 -34 395 -5 133 -20 291 -36 380
-9 48 -10 73 -6 285 1 67 -5 120 -20 180 -63 251 -64 256 -80 254 -5 -1 -19
26 -31 58 -13 33 -41 82 -63 108 -30 35 -40 57 -40 82 0 28 -5 36 -27 46 -26
11 -26 11 -4 7 31 -5 51 11 51 40 0 13 14 49 30 80 17 31 30 69 30 83 0 14 10
36 21 48 31 33 73 22 126 -33 36 -36 48 -43 82 -43 31 0 41 4 46 19 5 16 15
20 48 19 55 -1 167 11 180 19 6 4 65 7 131 9 211 3 260 6 301 17 51 13 65 24
65 51 0 11 8 44 19 71 10 28 17 55 14 61 -2 6 6 19 17 29 16 14 20 31 20 79 1
34 7 72 15 86 8 14 14 36 15 50 0 14 6 34 13 45 20 30 39 119 32 147 -8 31
-89 113 -103 104 -16 -10 -76 55 -87 94 -7 24 -16 35 -29 35 -12 0 -33 20 -56
52 -19 28 -59 74 -88 102 -29 27 -52 54 -52 58 0 4 -22 23 -49 42 -32 21 -52
43 -56 60 -4 17 -19 34 -41 46 -20 11 -40 30 -45 42 -5 13 -19 27 -31 33 -13
5 -54 43 -93 86 -38 42 -102 109 -140 148 -39 39 -86 91 -104 116 -19 25 -44
55 -57 67 -12 12 -24 27 -25 32 -6 15 -107 43 -152 42 -21 0 -46 -5 -57 -11
-16 -9 -20 -8 -20 5 0 8 5 15 10 15 6 0 10 10 10 23 0 13 4 27 8 33 5 5 14 29
21 52 9 31 21 48 43 60 16 10 46 29 65 44 19 15 43 30 54 33 10 4 19 11 19 16
0 5 43 53 95 105 52 53 103 109 112 125 10 16 21 29 25 29 4 0 8 13 8 29 0 16
5 42 10 56 15 41 42 164 47 220 2 28 13 78 23 113 11 34 22 93 26 130 4 37 10
72 14 77 4 6 10 24 13 40 26 132 27 144 15 172 -6 15 -10 33 -8 38 8 31 -3
239 -15 268 -8 19 -11 50 -8 79 7 58 -22 122 -85 190 -48 50 -82 101 -82 121
0 8 -13 29 -30 47 -16 18 -30 38 -30 43 0 5 -19 28 -42 51 -24 23 -56 59 -73
80 -16 21 -46 46 -65 56 -19 10 -54 35 -76 56 -38 36 -151 114 -178 123 -6 2
-42 17 -81 34 -38 17 -88 34 -110 38 -22 4 -83 16 -135 27 -108 23 -286 36
-295 22z m285 -164 c25 0 51 -5 59 -10 8 -5 28 -9 45 -8 17 0 35 -3 41 -8 10
-8 39 -20 145 -56 25 -9 54 -24 65 -34 11 -10 32 -21 46 -23 51 -10 349 -324
349 -369 0 -9 7 -18 15 -22 8 -3 15 -16 15 -28 0 -13 9 -38 20 -56 11 -18 20
-45 20 -60 0 -16 5 -33 12 -40 12 -12 32 -109 48 -237 5 -38 13 -99 18 -135 7
-45 5 -91 -4 -154 -9 -58 -10 -94 -4 -100 13 -13 -7 -36 -30 -36 -26 0 -44 28
-68 105 -17 53 -20 78 -13 101 11 40 -17 129 -49 151 -14 10 -46 16 -83 17
-56 1 -61 3 -68 27 -12 47 -61 119 -89 134 -15 8 -47 17 -71 21 -24 3 -62 14
-84 24 -22 10 -69 32 -105 49 -78 37 -82 37 -120 10 -16 -12 -35 -19 -43 -16
-8 3 -18 2 -23 -3 -5 -5 -36 -13 -69 -18 -58 -9 -76 -8 -196 4 -52 5 -57 4
-73 -20 -9 -15 -22 -24 -27 -20 -6 3 -21 -4 -34 -16 -13 -12 -45 -26 -71 -31
-63 -12 -114 -51 -114 -88 0 -38 -32 -65 -68 -58 -25 5 -31 2 -43 -21 -7 -15
-30 -47 -50 -72 -40 -49 -70 -110 -74 -150 -6 -55 -31 -147 -48 -173 -9 -14
-26 -52 -38 -84 -11 -32 -30 -78 -42 -103 l-22 -45 -31 35 c-18 19 -32 39 -33
43 0 4 -13 19 -29 32 -18 15 -31 38 -35 59 -3 19 -15 47 -26 63 -44 60 -102
326 -108 498 -8 216 32 372 136 529 14 21 31 46 36 55 29 46 145 166 187 194
15 9 60 24 100 32 39 9 76 19 82 24 6 5 29 14 51 21 22 7 47 19 57 27 9 8 22
13 30 12 7 -2 38 3 68 9 95 21 222 31 310 25 47 -3 105 -6 130 -7z m173 -809
c18 -8 48 -17 67 -21 19 -3 56 -22 82 -41 37 -27 48 -42 54 -72 3 -21 12 -47
19 -58 6 -11 17 -36 24 -56 10 -32 9 -41 -9 -73 l-22 -36 27 -54 c34 -69 28
-96 -18 -87 -39 8 -77 60 -77 107 0 19 5 65 12 104 11 65 11 74 -7 108 -38 71
-80 107 -155 133 -64 22 -81 35 -63 52 10 10 30 8 66 -6z m-240 -49 c26 -5 54
-7 62 -4 24 9 42 -3 64 -40 11 -19 26 -34 34 -34 35 0 95 -138 96 -222 1 -34
-7 -35 -69 -3 -27 14 -56 25 -65 25 -22 0 -18 -23 8 -48 12 -12 33 -33 47 -47
19 -19 35 -25 68 -25 36 0 49 -6 80 -36 20 -20 47 -40 60 -45 30 -12 113 -11
131 0 20 13 18 88 -4 134 -18 39 -18 39 9 94 24 50 25 58 14 96 -13 44 -14 46
-53 90 -14 15 -25 35 -25 43 0 16 26 19 35 4 5 -8 11 -7 21 1 19 16 44 4 44
-22 0 -11 11 -34 25 -51 16 -19 25 -42 25 -64 0 -20 4 -33 9 -30 5 3 12 -2 15
-11 5 -12 9 -14 18 -5 16 16 39 15 75 -3 39 -19 58 -42 74 -87 10 -30 10 -41
1 -50 -9 -9 -18 -6 -39 14 -35 32 -101 73 -131 81 -31 8 -38 -13 -46 -145 l-6
-108 25 0 c17 0 25 -5 25 -18 0 -10 13 -45 30 -77 41 -79 32 -89 -73 -83 -74
4 -80 3 -106 -21 -24 -24 -28 -37 -40 -143 -12 -118 -5 -213 21 -261 7 -15 6
-23 -6 -35 -12 -12 -34 -15 -98 -14 -102 3 -112 6 -127 38 -15 34 -54 30 -59
-6 -2 -14 -8 -30 -13 -36 -18 -22 45 -34 185 -36 124 -1 140 1 153 17 16 22
17 57 2 72 -5 5 -13 35 -16 65 l-6 55 73 7 c44 5 76 4 82 -2 17 -17 5 -167
-15 -189 -9 -11 -17 -27 -17 -35 0 -9 -7 -21 -15 -28 -8 -7 -15 -23 -15 -36 0
-29 -63 -150 -95 -183 -12 -13 -35 -23 -49 -23 -16 0 -31 -8 -36 -19 -6 -10
-17 -16 -24 -13 -8 3 -42 -2 -76 -10 -34 -9 -67 -13 -73 -9 -6 3 -27 8 -46 9
-20 1 -47 5 -61 8 -14 3 -50 10 -80 14 -66 10 -107 28 -191 84 -15 9 -39 20
-53 24 -14 3 -26 12 -26 19 0 25 -32 77 -42 67 -6 -6 -6 -17 1 -30 6 -11 11
-30 11 -42 0 -33 29 -68 62 -75 16 -4 38 -15 48 -25 11 -11 37 -24 59 -30 22
-6 43 -15 46 -20 3 -6 19 -10 35 -10 15 0 30 -6 33 -14 8 -21 104 -41 122 -26
21 17 32 4 17 -20 -7 -11 -12 -29 -12 -41 0 -12 -9 -36 -20 -54 l-20 -33 -40
19 c-22 11 -40 23 -40 27 0 5 -17 18 -37 30 -21 12 -51 33 -68 48 -16 15 -43
33 -60 40 -16 8 -64 37 -105 64 -41 27 -109 65 -150 85 -41 20 -84 44 -95 54
-11 10 -38 27 -59 37 -33 15 -36 19 -20 25 10 4 15 8 10 8 -5 1 -3 7 3 15 16
19 7 23 -68 30 -34 4 -75 12 -90 19 -14 8 -45 19 -68 27 l-43 13 0 74 c0 47 4
72 10 68 6 -3 10 -13 10 -21 0 -8 10 -14 24 -14 13 0 29 -7 36 -15 9 -10 32
-15 76 -15 l64 0 0 -40 c0 -22 5 -40 10 -40 6 0 10 5 10 11 0 7 9 9 22 6 12
-4 28 -2 34 4 9 7 16 5 23 -9 9 -18 20 -20 83 -18 77 3 136 24 156 56 10 17 8
18 -46 13 -31 -3 -64 -12 -72 -19 -13 -11 -21 -10 -48 3 -40 19 -75 61 -67 81
8 22 -4 52 -21 52 -8 0 -14 -10 -14 -25 0 -14 -1 -25 -2 -25 -2 1 -28 7 -58
14 -51 12 -55 15 -63 50 -11 45 3 64 73 102 43 23 48 30 67 92 15 52 17 74 10
99 -6 18 -13 33 -17 33 -3 0 -5 27 -5 59 1 52 5 64 30 93 32 35 55 73 55 90 0
6 19 38 41 72 39 57 42 67 49 156 7 80 5 97 -7 107 -14 11 -12 14 13 24 16 6
36 15 44 20 49 29 61 33 70 19 5 -8 1 -30 -10 -55 -30 -69 -54 -212 -41 -241
6 -13 14 -24 18 -24 18 0 37 69 38 130 0 50 4 68 18 78 11 9 15 21 11 36 -4
17 1 29 21 44 l26 21 35 -21 c18 -11 34 -27 34 -36 0 -10 7 -26 15 -36 16 -21
11 -57 -11 -91 -18 -27 -5 -45 24 -34 18 7 22 16 22 49 0 23 5 50 10 61 14 25
47 24 55 -1 3 -11 15 -25 26 -30 10 -6 19 -17 19 -24 0 -8 7 -30 15 -49 18
-43 45 -41 45 3 0 76 -55 141 -145 171 -47 16 -115 56 -115 67 0 24 23 24 133
0z m257 -43 c35 -18 81 -61 103 -97 18 -30 23 -113 7 -123 -5 -3 -10 -16 -10
-28 -1 -14 -12 2 -32 43 -27 58 -68 120 -105 158 -14 14 -17 44 -6 55 9 9 10
9 43 -8z m-674 -150 c12 -65 -4 -126 -49 -182 -23 -29 -49 -63 -58 -75 -29
-40 -31 -13 -9 94 12 57 23 117 23 133 1 20 11 36 27 47 41 27 58 22 66 -17z
m-153 -152 c-22 -122 -21 -264 2 -369 3 -12 -1 -34 -9 -48 -13 -26 -13 -26
-31 -6 -10 11 -24 20 -31 20 -34 0 -46 68 -33 190 8 76 17 109 44 163 22 42
30 67 22 67 -6 1 -2 9 11 19 12 11 22 24 22 30 0 6 4 11 8 11 5 0 2 -35 -5
-77z m1269 16 c14 -11 30 -19 35 -19 4 0 14 -9 21 -20 7 -11 18 -20 25 -20 15
0 67 -101 67 -129 0 -30 11 -51 26 -51 7 0 21 -14 30 -32 24 -46 14 -141 -19
-177 -13 -14 -31 -37 -40 -50 -15 -23 -15 -27 5 -59 17 -28 19 -43 14 -88 -7
-64 -31 -127 -63 -170 -13 -17 -23 -35 -23 -40 0 -11 -63 -76 -142 -146 -48
-42 -59 -48 -64 -34 -4 10 1 25 10 35 9 10 20 35 23 55 6 37 19 51 90 94 39
24 95 97 108 142 l8 25 -24 -20 c-35 -29 -67 -63 -78 -82 -18 -30 -33 4 -17
36 21 41 27 138 10 152 -18 15 -18 33 1 49 8 7 15 20 15 29 0 32 16 44 39 31
30 -16 46 -1 67 63 9 29 20 56 25 62 21 22 7 55 -41 102 -27 26 -58 48 -67 48
-11 0 -25 16 -37 40 -10 22 -22 41 -26 43 -4 2 -6 11 -3 22 3 12 -8 29 -33 53
-36 32 -37 37 -26 62 14 29 35 28 84 -6z m-327 -79 c23 -26 16 -34 -10 -12
-31 26 -44 63 -31 85 10 15 12 13 17 -18 3 -19 14 -44 24 -55z m419 -221 c14
-17 26 -34 26 -39 0 -18 -38 -96 -52 -108 -13 -10 -16 -8 -21 18 -4 18 -13 30
-22 30 -17 0 -22 65 -5 75 6 3 10 17 10 31 0 34 32 31 64 -7z m-1453 -188 c19
-53 19 -54 0 -67 -10 -7 -24 -27 -31 -44 -7 -16 -16 -30 -21 -30 -14 0 -10
-27 6 -44 8 -8 15 -17 15 -20 0 -3 -7 -6 -15 -6 -8 0 -15 4 -15 9 0 12 -57 98
-71 106 -14 9 -11 112 4 118 6 2 18 22 26 43 7 22 21 47 29 57 16 18 17 16 35
-25 11 -24 28 -67 38 -97z m1341 62 c18 -19 -4 -37 -52 -40 -22 -1 -51 -10
-65 -19 -15 -10 -25 -12 -25 -5 0 6 -11 11 -25 11 -23 0 -25 4 -25 41 0 34 3
39 18 35 9 -3 23 -2 30 2 16 11 127 -9 144 -25z m-1262 -67 c0 -16 -18 -31
-27 -22 -8 8 5 36 17 36 5 0 10 -6 10 -14z m1164 -88 c8 -48 2 -57 -24 -40
-11 7 -33 12 -50 12 -27 0 -30 3 -30 33 0 31 1 32 49 34 l49 2 6 -41z m-1139
-208 c3 -5 -3 -10 -14 -10 -12 0 -21 5 -21 10 0 6 6 10 14 10 8 0 18 -4 21
-10z m-141 -431 c20 -12 36 -26 36 -33 0 -6 -47 -59 -105 -116 -57 -58 -105
-109 -105 -113 0 -5 -19 -28 -42 -51 -64 -64 -160 -222 -252 -416 -44 -92 -45
-97 -37 -157 12 -98 31 -99 49 -3 20 103 31 145 46 182 9 21 16 48 16 61 0 13
9 32 20 42 11 10 20 26 20 35 0 9 9 25 20 35 11 10 22 27 26 39 7 22 89 134
148 202 20 23 36 46 36 53 0 6 4 11 8 11 5 0 34 25 66 55 32 30 68 57 79 61
12 3 29 12 37 20 13 11 20 11 40 -1 14 -8 32 -18 40 -22 8 -4 33 -19 55 -34
23 -15 77 -44 120 -64 67 -30 93 -36 165 -39 47 -2 102 0 123 6 32 7 42 6 57
-7 15 -14 22 -14 40 -5 13 7 36 9 52 6 24 -5 29 -3 24 9 -4 11 1 15 19 15 21
0 25 -7 36 -55 7 -31 16 -58 21 -61 4 -3 8 -20 8 -38 0 -17 4 -36 9 -42 4 -5
11 -21 15 -36 5 -22 2 -28 -16 -33 -67 -20 -148 -110 -148 -163 0 -11 -5 -24
-10 -27 -22 -14 -61 -88 -71 -133 -5 -26 -11 -56 -13 -67 -3 -11 -11 -40 -19
-65 -12 -37 -19 -46 -41 -48 -21 -3 -28 -10 -33 -33 -5 -25 -10 -29 -38 -29
-17 0 -35 -3 -39 -7 -4 -5 -11 -8 -14 -8 -4 0 -43 -18 -87 -39 -81 -40 -210
-80 -226 -71 -4 3 -11 22 -15 43 -3 20 -12 46 -18 57 -21 34 -26 66 -10 72 17
6 19 24 2 22 -36 -4 -39 1 -32 49 9 64 28 98 61 110 40 16 65 40 107 104 20
31 43 62 51 68 8 7 15 18 15 25 0 7 15 22 33 32 49 30 77 144 42 173 -13 10
-19 10 -35 -5 -11 -10 -20 -25 -20 -34 0 -9 -18 -51 -40 -94 -22 -43 -40 -83
-40 -89 0 -6 -18 -26 -39 -44 -21 -19 -52 -55 -67 -81 -28 -49 -52 -78 -58
-72 -4 5 -16 196 -16 262 0 49 -15 62 -39 33 -16 -19 -13 -370 3 -413 3 -8 3
-20 -1 -26 -17 -27 -13 -70 8 -85 11 -8 18 -20 15 -28 -3 -7 1 -26 9 -41 18
-34 19 -65 3 -81 -7 -7 -44 -12 -95 -12 -66 0 -93 -5 -135 -24 -29 -13 -72
-32 -96 -42 -23 -9 -56 -27 -73 -40 -17 -12 -47 -25 -67 -29 -43 -7 -202 -111
-217 -141 -5 -11 -27 -36 -48 -55 l-37 -35 39 -32 c22 -18 42 -32 45 -32 9 0
93 -59 106 -75 7 -8 16 -12 20 -10 8 5 40 63 40 71 0 2 -22 13 -50 25 -44 19
-116 89 -91 89 5 0 32 18 60 40 29 23 94 61 146 86 52 25 97 50 101 55 8 13
44 11 44 -3 0 -12 -17 -69 -31 -103 -15 -37 -35 -130 -31 -147 2 -10 9 -18 15
-18 14 1 47 63 47 90 0 10 5 22 10 25 6 3 10 17 10 31 0 14 7 36 16 49 9 14
18 46 19 71 4 55 13 66 59 69 36 2 84 19 161 56 22 10 45 19 51 19 23 0 43
-35 40 -70 -9 -92 -19 -157 -27 -172 -12 -23 -41 -187 -37 -213 1 -12 -8 -34
-20 -50 -27 -34 -25 -59 4 -63 22 -3 34 19 34 63 0 26 66 232 85 266 8 14 19
73 24 130 9 96 12 106 38 126 18 15 35 20 50 17 13 -4 30 -1 38 6 7 6 22 10
32 9 10 -2 51 14 90 34 40 20 77 37 81 37 9 0 19 -44 28 -130 2 -24 9 -49 14
-54 6 -6 10 -28 10 -51 0 -22 6 -60 12 -85 14 -58 11 -345 -6 -450 -3 -19 -10
-82 -17 -138 -7 -57 -17 -105 -23 -107 -24 -8 -535 -14 -540 -7 -9 15 25 69
50 81 14 6 53 30 87 52 34 23 91 52 126 66 35 13 77 34 95 47 17 13 48 31 69
40 42 17 45 26 18 50 -19 17 -22 17 -78 -7 -32 -14 -65 -28 -73 -31 -8 -4 -27
-14 -42 -24 -14 -9 -56 -34 -92 -55 -36 -21 -68 -42 -71 -47 -3 -6 -15 -10
-26 -10 -37 0 -94 -38 -119 -79 -21 -35 -69 -70 -97 -71 -11 -1 -63 -47 -63
-57 0 -9 -65 -63 -97 -80 -19 -9 -30 -9 -58 3 -19 8 -35 19 -35 24 0 15 -84
121 -134 168 -25 24 -46 46 -46 50 -1 11 -37 52 -47 52 -8 1 -83 111 -83 123
0 4 -22 30 -50 57 -27 27 -50 52 -50 55 0 10 -85 120 -103 134 -22 16 -18 42
17 116 83 173 97 211 92 236 -3 17 0 32 9 39 8 7 15 22 15 33 0 11 10 31 22
44 18 19 20 26 10 45 -7 13 -12 32 -12 43 0 11 -3 41 -6 68 -4 29 -2 47 4 47
21 0 42 -12 36 -21 -3 -5 1 -9 10 -9 9 0 21 19 30 48 8 26 29 85 46 132 17 47
35 105 40 130 12 68 83 266 103 288 9 10 17 24 17 31 0 7 19 29 41 49 23 20
45 47 50 59 5 13 26 35 48 50 22 16 44 38 50 50 5 12 22 28 38 37 72 39 133
66 150 66 10 0 34 11 53 25 19 13 36 24 37 25 1 0 18 -9 37 -21z m1360 -187
c25 -23 46 -47 46 -52 0 -5 10 -12 22 -16 22 -7 81 -67 172 -177 72 -86 168
-187 179 -187 4 0 19 -13 33 -29 17 -20 30 -27 44 -24 18 5 20 1 18 -25 -2
-32 5 -43 78 -122 58 -62 144 -171 144 -183 0 -5 14 -7 30 -5 17 3 30 1 30 -4
0 -4 -7 -8 -15 -8 -8 0 -15 -4 -15 -8 0 -14 153 -169 173 -176 9 -3 20 -14 24
-23 3 -10 20 -33 36 -52 l30 -35 -25 -21 c-25 -21 -58 -106 -63 -160 -10 -125
-38 -270 -57 -292 -6 -7 -24 -19 -41 -28 -25 -13 -33 -13 -46 -2 -10 8 -32 12
-56 10 -99 -9 -308 -12 -300 -5 14 11 75 31 159 52 79 20 160 53 170 69 4 6
23 11 41 11 24 0 38 6 45 19 14 27 13 34 -6 27 -9 -4 -62 -9 -118 -11 -82 -4
-114 -11 -173 -35 -39 -17 -82 -30 -95 -30 -24 0 -110 -48 -122 -69 -4 -6 -15
-11 -25 -11 -10 0 -25 -8 -34 -17 -9 -10 -33 -27 -54 -38 -21 -10 -45 -25 -54
-32 -13 -11 -19 -9 -39 12 -13 14 -21 28 -17 31 7 7 -23 64 -33 64 -33 1 -33
50 1 50 17 0 19 8 19 59 0 75 13 109 45 121 56 21 9 61 -90 75 -25 4 -48 11
-51 16 -3 5 -16 9 -28 9 -30 0 -104 41 -138 77 -46 49 -86 138 -86 189 0 25
-5 51 -11 57 -18 18 -13 48 9 54 22 6 83 89 75 103 -3 4 4 10 15 13 23 6 27
32 6 40 -10 4 -28 -14 -54 -56 -21 -34 -41 -69 -44 -78 -4 -9 -41 -39 -85 -68
-102 -67 -150 -107 -185 -155 -32 -44 -157 -155 -174 -156 -14 0 -22 40 -30
141 -6 80 -20 147 -35 165 -19 23 -18 52 1 57 20 5 62 118 65 176 2 44 8 65
32 116 38 84 95 144 263 280 116 94 146 111 166 94 8 -6 14 -8 14 -5 0 4 9 2
20 -4 11 -6 20 -16 20 -22 0 -12 -63 -69 -121 -109 -49 -34 -133 -105 -178
-152 -35 -36 -71 -120 -57 -135 10 -9 55 49 56 72 0 33 78 109 185 181 44 30
91 63 105 75 32 25 87 27 92 3 4 -18 -113 -143 -219 -235 -97 -84 -158 -178
-114 -178 9 0 80 92 91 117 3 6 35 44 71 85 64 71 129 120 129 99 0 -6 6 -11
14 -11 12 0 26 -28 26 -56 0 -7 -11 -15 -25 -18 -14 -4 -38 -26 -56 -54 -18
-26 -36 -49 -40 -52 -4 -3 -20 -30 -35 -60 -15 -30 -40 -70 -56 -88 -15 -18
-28 -37 -28 -43 0 -15 40 9 47 29 8 22 69 116 106 165 16 20 25 37 21 37 -4 0
3 11 16 25 25 27 50 31 81 15 18 -10 17 -12 -11 -52 -16 -22 -27 -45 -23 -51
4 -6 11 -4 18 6 15 21 41 22 49 1 11 -29 6 -84 -9 -108 -9 -13 -18 -48 -20
-77 -2 -30 -2 -45 1 -34 3 11 12 27 19 35 22 27 45 83 51 124 4 23 13 51 20
63 24 38 16 60 -46 122 -60 61 -60 61 -47 93 7 18 25 39 39 45 24 12 29 9 87
-47 l62 -60 -1 -77 c-1 -43 2 -91 7 -108 11 -34 11 -70 -1 -103 -5 -16 -1 -32
13 -56 17 -28 27 -33 61 -34 38 -2 40 0 40 27 0 27 21 57 32 46 8 -8 107 -32
163 -40 62 -9 133 -42 141 -67 6 -21 22 -23 47 -4 16 12 14 15 -21 38 -38 26
-94 44 -123 40 -8 -2 -32 10 -51 26 -25 20 -58 33 -108 42 -60 11 -75 18 -95
44 -14 17 -20 33 -14 34 24 9 118 70 113 74 -2 3 8 8 23 11 56 13 61 24 23 54
-31 25 -76 53 -86 53 -12 0 0 -28 21 -50 l26 -27 -28 -18 c-15 -10 -40 -29
-56 -43 -15 -14 -33 -27 -41 -28 -18 -3 -28 35 -20 75 5 22 2 37 -10 50 -11
13 -14 21 -7 26 19 11 12 31 -14 43 -14 6 -25 18 -25 26 0 8 -19 33 -42 55
-42 40 -87 64 -141 76 -16 3 -39 16 -51 28 -28 28 -132 97 -146 97 -5 0 -19
-9 -30 -20 -12 -12 -25 -18 -29 -15 -5 2 -14 -2 -21 -10 -7 -8 -18 -15 -25
-15 -7 0 -18 -7 -25 -15 -15 -18 -60 -20 -61 -2 -1 6 0 22 1 35 1 12 -5 25
-14 28 -10 4 -13 15 -9 40 4 27 2 34 -11 34 -19 0 -20 10 -3 32 15 20 123 79
130 71 3 -3 23 5 43 17 30 19 50 23 115 22 43 0 81 4 84 9 9 13 45 -9 99 -59z
m213 -778 c-3 -3 -12 -4 -19 -1 -8 3 -5 6 6 6 11 1 17 -2 13 -5z m-496 -174
c4 0 6 -13 3 -30 -4 -16 -2 -36 3 -42 5 -7 16 -33 23 -58 7 -25 19 -52 26 -60
7 -8 23 -39 37 -68 l24 -53 -24 -67 c-12 -37 -23 -88 -23 -113 0 -26 -8 -73
-19 -105 -10 -33 -22 -78 -26 -101 -4 -24 -11 -45 -16 -49 -5 -3 -9 -18 -9
-34 0 -16 -4 -32 -10 -35 -5 -3 -10 -15 -10 -27 0 -11 -8 -33 -17 -49 -14 -24
-15 -33 -5 -49 18 -30 16 -32 -35 -29 -27 1 -55 -1 -63 -5 -17 -7 -95 18 -94
31 0 4 8 25 18 47 17 39 16 66 -4 66 -6 0 -13 -6 -16 -14 -5 -12 -10 -12 -37
-1 l-32 13 0 -53 c0 -29 -2 -55 -5 -58 -5 -5 -142 12 -149 18 -2 2 4 37 13 77
9 40 20 93 25 118 13 62 12 252 -1 267 -7 9 -7 17 0 26 6 7 9 23 6 34 -4 15 0
26 15 35 15 9 21 23 21 47 0 31 2 33 28 28 23 -5 37 3 86 48 37 34 56 60 53
69 -8 21 66 98 87 90 20 -8 20 -9 2 -37 -11 -16 -16 -71 -20 -217 -5 -190 -19
-292 -52 -383 -8 -20 -14 -49 -14 -64 0 -24 3 -22 40 25 22 27 40 61 40 74 0
13 5 29 11 35 22 22 38 137 44 323 3 107 8 209 11 226 4 25 1 35 -13 43 -17
10 -17 11 5 17 12 4 25 17 28 31 4 16 11 22 21 19 8 -3 19 -6 24 -6z m318
-378 c3 -1 -3 -17 -14 -34 -17 -30 -21 -72 -14 -156 2 -27 -4 -38 -35 -64 -27
-22 -35 -35 -30 -50 3 -11 -1 -26 -9 -36 -9 -9 -23 -37 -33 -62 -9 -25 -35
-67 -56 -94 -21 -27 -38 -59 -38 -71 0 -30 -25 -38 -61 -20 -38 20 -38 50 0
112 17 27 35 71 42 98 6 28 15 59 20 70 11 28 20 80 25 150 3 33 11 74 19 90
7 17 16 46 20 65 10 54 37 62 105 31 30 -14 57 -27 59 -29z m-715 -700 c6 -3
44 -7 85 -9 124 -4 170 -10 185 -22 20 -17 49 -148 48 -214 -1 -32 2 -66 7
-75 15 -29 22 -935 7 -1031 -7 -46 -13 -149 -15 -230 -1 -80 -7 -184 -12 -231
-16 -144 -38 -333 -43 -368 -2 -18 -10 -39 -16 -47 -9 -10 -8 -19 1 -36 8 -17
9 -24 1 -27 -7 -2 -9 -15 -6 -32 5 -24 -7 -64 -36 -121 -5 -9 -12 -38 -15 -65
-11 -74 -12 -77 -28 -117 -11 -26 -20 -35 -31 -31 -19 7 -23 109 -5 120 7 4
10 49 9 128 0 66 4 164 10 216 10 87 9 168 -6 275 -6 49 -6 71 2 207 5 93 3
112 -15 153 -13 29 -18 57 -15 74 7 33 -17 154 -45 237 -12 32 -19 60 -16 62
2 3 -2 17 -9 31 -8 14 -17 33 -21 41 -8 20 -28 55 -42 71 -5 8 -13 27 -17 44
-4 16 -21 47 -37 69 -16 22 -29 45 -29 51 0 7 -9 20 -20 30 -29 27 -72 107
-67 126 3 9 1 22 -2 28 -10 16 -61 -25 -61 -47 0 -9 21 -49 48 -89 76 -116 92
-143 98 -171 4 -15 10 -31 14 -37 4 -5 15 -35 25 -65 10 -30 24 -64 31 -75 7
-11 17 -45 22 -75 6 -30 19 -75 30 -100 28 -67 33 -103 37 -311 3 -142 8 -203
20 -240 9 -27 15 -55 12 -62 -2 -7 -1 -55 4 -107 4 -53 4 -128 -2 -170 -5 -41
-11 -115 -14 -165 -17 -281 -45 -488 -74 -543 -6 -11 -11 -33 -11 -48 0 -15
-16 -48 -35 -75 -19 -27 -35 -52 -35 -57 0 -12 -79 -82 -93 -82 -7 0 -18 -5
-24 -11 -6 -6 -28 -15 -49 -21 -57 -15 -227 -26 -241 -16 -6 5 -81 12 -165 15
-174 6 -290 -10 -379 -53 l-49 -24 -41 21 c-23 11 -60 39 -84 62 -56 56 -123
112 -222 186 -125 95 -263 264 -263 323 0 8 -13 34 -30 56 -16 23 -30 47 -30
54 0 7 -11 31 -25 53 -13 22 -25 50 -25 62 0 12 -4 25 -10 28 -5 3 -10 16 -10
29 0 12 -7 31 -15 42 -8 10 -15 25 -15 32 0 8 -9 25 -20 39 -11 14 -20 37 -20
50 0 14 -6 39 -14 56 -17 39 -30 78 -46 137 -6 25 -16 53 -21 62 -5 10 -9 24
-9 32 0 7 -9 24 -19 38 -35 44 -88 216 -98 319 -4 34 1 55 16 82 12 21 21 46
21 57 0 11 5 20 11 20 6 0 8 8 4 19 -3 11 -1 22 5 26 5 3 10 22 10 41 0 30 4
35 30 41 17 3 30 12 30 19 0 8 7 14 15 14 8 0 15 6 15 14 0 7 7 19 15 26 8 7
15 21 15 31 0 10 18 33 40 50 22 18 40 37 40 43 0 13 64 76 76 76 4 0 21 15
39 33 57 58 154 117 195 117 20 0 41 5 47 11 6 6 19 9 28 7 11 -2 -2 -13 -37
-31 -231 -119 -272 -149 -333 -243 -33 -51 -45 -68 -96 -128 -20 -23 -28 -47
-34 -96 -4 -36 -15 -98 -26 -137 -24 -90 -24 -139 0 -228 68 -258 65 -248 89
-243 13 3 16 26 19 150 2 84 0 164 -6 186 -8 26 -7 59 0 108 6 38 11 85 12
104 1 19 6 41 11 49 5 8 10 26 11 41 3 40 71 174 101 202 29 25 296 155 369
179 36 11 65 25 65 30 0 5 15 9 33 9 51 0 70 28 78 117 7 67 27 126 70 205 5
10 9 26 9 36 0 10 4 22 9 28 11 11 61 136 61 151 0 6 7 16 15 23 8 7 15 23 15
36 0 13 9 28 19 34 13 7 22 26 27 57 5 34 15 54 37 74 16 15 27 34 24 41 -8
23 16 57 58 78 45 23 159 30 137 8 -7 -7 -12 -20 -12 -30 0 -10 -4 -18 -10
-18 -5 0 -23 -28 -39 -61 -17 -34 -39 -71 -49 -83 -11 -11 -30 -51 -42 -88
-13 -37 -29 -73 -36 -79 -8 -6 -14 -23 -14 -38 0 -14 -9 -49 -19 -76 -20 -52
-24 -124 -23 -390 0 -60 -2 -182 -4 -270 -4 -158 4 -210 31 -206 12 1 15 210
3 217 -5 3 -4 12 3 20 14 17 27 134 34 308 3 70 8 133 11 138 8 12 16 114 15
175 -1 53 72 240 117 302 18 24 32 56 32 71 0 33 47 127 69 140 10 5 65 12
123 15 l105 7 12 -46 c13 -54 14 -280 1 -386 -5 -41 -11 -98 -13 -127 -2 -29
-10 -59 -17 -68 -7 -8 -15 -48 -18 -88 -2 -39 -9 -81 -15 -92 -6 -11 -14 -36
-18 -55 -23 -100 -69 -246 -114 -355 -8 -19 -7 -19 11 -3 10 9 28 34 39 55 10
21 27 50 37 65 10 14 18 35 18 46 0 11 15 44 33 75 19 30 41 86 51 123 10 38
24 89 33 114 17 53 34 142 34 185 0 17 4 41 10 55 5 14 11 48 13 75 2 28 6 82
9 122 3 40 10 80 15 90 5 10 7 61 5 114 l-5 96 90 1 c87 0 90 0 103 -26 8 -15
21 -38 31 -52 9 -14 23 -60 32 -102 8 -43 27 -99 41 -126 14 -26 25 -59 25
-73 0 -76 36 -293 55 -329 9 -18 14 -42 11 -55 -8 -30 20 -188 39 -225 8 -15
16 -54 17 -86 3 -50 6 -59 23 -62 11 -1 28 3 37 10 18 14 16 28 -27 162 -9 29
-13 63 -9 82 4 22 1 40 -10 56 -11 15 -16 44 -16 88 0 36 -7 92 -14 125 -8 33
-17 85 -21 115 -3 30 -17 97 -31 148 -13 52 -24 104 -24 117 0 13 -4 27 -10
30 -5 3 -10 23 -10 44 0 22 -6 44 -15 51 -8 7 -15 24 -15 38 0 26 -25 62 -43
62 -11 0 -36 30 -37 43 0 8 56 0 74 -11z m448 -172 c10 -85 27 -218 40 -295
12 -81 23 -199 25 -280 2 -132 7 -261 20 -555 6 -150 6 -124 -1 -349 -3 -102
-9 -193 -12 -204 -3 -11 -8 -45 -9 -76 -5 -82 -19 -182 -43 -301 -11 -58 -24
-136 -27 -175 -8 -94 -25 -216 -32 -235 -3 -8 -7 -51 -10 -95 -2 -50 -11 -95
-23 -120 -11 -23 -22 -74 -26 -118 l-6 -79 -91 -89 c-50 -49 -104 -95 -119
-102 -16 -6 -28 -16 -28 -22 0 -9 -70 -64 -96 -75 -11 -5 -48 -34 -123 -95
-58 -48 -99 -75 -114 -75 -8 0 -26 -9 -40 -20 -24 -19 -34 -20 -164 -13 -134
6 -417 9 -478 4 -57 -5 -208 29 -306 69 -39 17 -84 30 -98 30 -14 0 -57 12
-96 25 -38 14 -77 25 -86 25 -8 0 -20 5 -27 12 -6 6 -21 13 -32 15 -33 5 -100
42 -101 56 0 6 -2 107 -3 223 -2 116 -7 218 -11 225 -4 8 4 3 17 -11 14 -14
21 -28 16 -31 -15 -10 1 -33 42 -62 22 -16 40 -34 40 -41 0 -8 10 -21 23 -29
12 -8 39 -30 59 -49 20 -18 43 -39 52 -45 8 -7 18 -19 23 -26 4 -7 40 -35 78
-62 39 -27 87 -63 107 -79 20 -17 58 -42 85 -55 26 -14 66 -39 88 -56 48 -38
101 -65 127 -65 31 0 4 36 -37 50 -19 6 -35 15 -35 20 0 5 -18 22 -40 38 l-41
30 38 4 c21 3 46 1 56 -4 11 -6 33 -3 62 7 25 8 57 15 70 15 13 0 26 3 29 8 2
4 110 6 240 5 159 -2 236 1 236 8 0 5 5 7 12 3 36 -22 143 -21 169 2 10 9 23
13 29 9 6 -4 22 4 35 17 13 12 28 28 34 33 6 6 32 33 59 62 35 38 52 49 60 41
8 -8 31 2 84 35 111 69 117 75 111 133 -6 54 -23 80 -47 71 -18 -7 -22 -42 -6
-52 6 -3 10 -21 10 -40 0 -38 -26 -61 -93 -84 -44 -15 -53 -11 -39 16 5 10 13
35 16 57 4 21 17 51 28 67 17 23 31 71 42 149 1 9 6 22 11 30 18 29 78 206 86
255 13 82 32 160 40 165 4 3 9 28 12 55 12 104 27 219 36 273 63 359 67 403
75 807 2 121 7 274 10 340 4 69 2 154 -4 200 -11 82 -18 154 -25 262 -2 35 -6
66 -8 70 -3 5 -10 62 -16 128 -7 66 -14 133 -17 148 -6 27 -4 28 27 25 l33 -3
18 -155z m99 112 c28 -19 90 -160 106 -237 17 -86 24 -178 26 -315 2 -79 6
-112 18 -131 12 -18 18 -61 22 -172 4 -81 9 -151 11 -156 3 -4 8 -70 11 -147
4 -76 9 -146 12 -154 4 -8 7 -179 9 -380 1 -205 6 -384 12 -408 6 -26 7 -57 1
-82 -7 -32 -6 -47 8 -73 13 -25 17 -54 15 -137 l-2 -105 -47 -45 c-27 -25 -70
-69 -96 -98 -26 -28 -54 -52 -62 -52 -13 0 -65 -55 -65 -69 0 -7 -14 -16 -62
-39 -13 -6 -9 67 6 101 21 50 56 97 126 167 102 102 101 100 84 156 -8 26 -14
58 -14 71 0 29 -7 29 -31 1 -12 -15 -18 -39 -19 -68 0 -41 -5 -50 -52 -98 -47
-48 -50 -54 -40 -78 16 -33 16 -34 -11 -34 -41 0 -59 37 -38 78 32 63 40 98
46 200 6 90 8 103 18 119 5 7 8 37 9 65 0 29 4 60 9 69 4 9 11 59 14 110 3 52
10 109 16 128 7 21 9 70 5 135 -4 58 -2 141 4 196 12 99 16 377 6 387 -3 3 -3
10 1 16 11 18 14 285 3 344 -6 32 -17 108 -26 168 -14 103 -19 129 -45 229 -5
21 -12 60 -14 85 -2 25 -11 99 -21 165 -14 99 -14 120 -3 127 9 5 17 2 23 -9
5 -9 17 -23 27 -30z"/>
<path d="M2461 7246 c-19 -20 -22 -31 -17 -58 4 -18 10 -52 13 -75 l5 -41 76
-8 c93 -10 169 -10 179 -1 16 16 -22 32 -80 32 -34 1 -75 8 -92 16 -28 13 -30
18 -31 73 -1 35 -7 63 -16 72 -12 13 -17 11 -37 -10z"/>
<path d="M2288 7159 c-36 -20 -114 -136 -136 -200 -26 -82 -21 -130 20 -182
17 -21 28 -39 27 -41 -2 -1 -20 -10 -40 -19 -20 -9 -42 -23 -49 -32 -7 -8 -24
-15 -39 -15 -18 0 -30 -8 -38 -26 -14 -30 -6 -84 12 -84 12 0 140 91 160 113
6 7 19 17 30 23 16 9 20 22 21 60 0 47 25 104 46 104 15 0 88 84 88 102 0 37
-25 27 -87 -37 -42 -43 -70 -64 -80 -61 -8 3 -19 6 -24 6 -15 0 2 63 27 100
12 19 32 55 44 80 11 25 28 57 38 72 19 31 8 53 -20 37z"/>
<path d="M2584 6825 c-12 -8 -24 -12 -27 -8 -4 3 -9 -2 -13 -11 -3 -9 -10 -16
-15 -16 -16 0 -80 -48 -71 -54 5 -3 40 4 78 15 38 11 84 25 102 30 27 8 37 7
51 -5 10 -9 21 -16 24 -16 14 0 6 16 -24 48 -33 35 -71 42 -105 17z"/>
<path d="M2877 6803 c-3 -5 -2 -23 0 -41 7 -43 27 -36 31 11 2 28 -1 37 -12
37 -8 0 -17 -3 -19 -7z"/>
<path d="M2878 6663 c-5 -66 -1 -86 16 -80 15 5 15 129 -1 134 -7 3 -12 -16
-15 -54z"/>
<path d="M2535 6699 c-57 -11 -81 -30 -71 -54 6 -16 25 -17 121 -3 28 4 48
-43 40 -93 -6 -34 -10 -39 -34 -39 -15 0 -36 7 -47 15 -10 8 -29 15 -41 15
-34 0 -30 -38 5 -51 35 -14 124 -4 138 16 6 8 25 15 43 15 38 0 51 25 58 118
l6 62 -40 0 c-22 0 -60 2 -84 4 -24 3 -66 0 -94 -5z"/>
<path d="M2750 6281 c-22 -4 -36 -12 -38 -24 -7 -38 42 -63 67 -33 8 10 23 11
62 5 27 -4 56 -6 64 -3 7 3 16 1 19 -4 5 -9 91 0 102 11 4 3 4 13 1 22 -5 11
-23 15 -74 16 -88 1 -134 4 -153 11 -8 3 -31 3 -50 -1z"/>
<path d="M2954 6176 l-7 -38 -63 6 c-59 6 -64 5 -64 -13 0 -31 31 -42 91 -34
29 5 52 10 51 13 -1 3 3 21 7 41 5 21 5 43 1 50 -6 8 -11 -1 -16 -25z"/>
<path d="M3324 6575 c-4 -8 -3 -23 1 -32 6 -16 8 -16 26 6 10 13 19 27 19 32
0 15 -40 10 -46 -6z"/>
<path d="M1657 5128 c-16 -12 -15 -17 18 -72 19 -32 35 -62 35 -67 0 -4 9 -11
20 -14 11 -3 20 -15 20 -25 0 -13 9 -22 25 -26 14 -3 25 -13 25 -20 0 -10 -7
-13 -24 -8 -13 3 -27 1 -31 -5 -4 -7 -20 -9 -38 -6 -27 5 -34 2 -42 -16 -7
-15 -20 -24 -40 -25 -50 -5 -139 -24 -162 -36 -17 -9 -28 -7 -48 6 -14 9 -34
15 -44 11 -9 -3 -43 8 -75 24 -49 26 -58 27 -63 14 -8 -20 11 -34 104 -80 66
-32 75 -34 107 -23 20 6 40 8 46 5 6 -4 22 0 35 9 13 9 30 13 38 10 8 -3 29 4
48 15 19 11 52 23 74 26 72 12 133 33 164 56 l31 22 -51 29 c-27 16 -53 37
-56 46 -4 9 -22 38 -40 63 -18 26 -33 51 -33 56 0 5 -6 17 -13 26 -10 15 -15
16 -30 5z"/>
<path d="M2040 5010 c-12 -8 -11 -10 7 -10 12 0 25 5 28 10 8 13 -15 13 -35 0z"/>
<path d="M3120 5154 c-8 -9 -10 -18 -4 -24 6 -6 14 -2 22 10 14 23 -1 36 -18
14z"/>
<path d="M3441 4946 c-19 -22 13 -82 60 -112 39 -24 40 -26 24 -44 -10 -11
-14 -26 -11 -38 4 -11 0 -24 -9 -32 -13 -11 -17 -25 -29 -90 -1 -8 -10 -33
-20 -55 -10 -22 -20 -60 -23 -85 -2 -25 -7 -52 -10 -60 -3 -8 -8 -60 -10 -115
-3 -55 -6 -111 -7 -125 0 -14 3 -27 8 -30 14 -8 35 63 38 128 2 31 6 59 9 62
13 11 18 70 6 70 -8 1 -6 5 4 13 8 7 23 48 32 94 13 67 24 94 57 138 22 30 47
55 55 55 19 0 20 -56 1 -101 -8 -19 -17 -59 -21 -89 -4 -30 -15 -85 -26 -121
-10 -36 -19 -68 -19 -70 0 -3 12 -5 28 -4 16 0 26 -5 24 -12 -1 -7 4 -13 11
-13 15 0 37 74 37 123 0 18 7 60 16 92 8 33 21 92 29 130 7 39 17 82 20 98 6
23 4 27 -12 27 -11 0 -43 24 -72 55 -28 30 -53 54 -54 54 -14 -3 -57 24 -57
35 0 9 -6 13 -13 10 -8 -3 -20 2 -27 11 -15 19 -24 19 -39 1z"/>
<path d="M3170 4923 c0 -10 7 -31 15 -47 8 -15 15 -34 15 -42 0 -18 76 -68 90
-59 15 9 -4 31 -33 39 -22 5 -73 87 -70 114 0 6 -3 12 -8 12 -5 0 -9 -8 -9
-17z"/>
<path d="M2627 4188 c3 -29 9 -57 13 -63 4 -5 10 -23 14 -38 6 -24 9 -27 22
-16 8 7 11 15 7 18 -4 3 -9 25 -10 49 -3 44 -27 102 -43 102 -5 0 -7 -23 -3
-52z"/>
<path d="M1273 2725 c-19 -22 -49 -122 -39 -132 3 -3 11 -1 18 3 7 5 20 7 30
6 9 -2 20 3 25 10 11 17 30 112 25 127 -6 18 -35 11 -59 -14z"/>
<path d="M995 2600 c-4 -7 -9 -31 -10 -53 -2 -23 -8 -73 -13 -112 -6 -38 -13
-95 -16 -125 -3 -30 -8 -81 -12 -114 -6 -64 1 -76 47 -76 23 0 27 5 32 43 2
23 3 87 1 142 -3 55 -2 110 1 123 l6 23 29 -23 c16 -13 29 -29 29 -35 1 -7 7
-13 14 -13 14 0 57 -72 57 -96 0 -8 7 -17 15 -20 14 -6 125 -167 125 -182 0
-20 102 -51 255 -78 17 -3 39 -9 50 -14 29 -12 168 -46 249 -60 57 -11 70 -10
77 1 23 36 3 53 -76 64 -27 4 -61 13 -75 20 -14 7 -52 16 -85 20 -64 8 -135
27 -175 49 -14 8 -44 17 -67 21 -41 6 -113 62 -113 87 0 5 -11 24 -25 42 -14
17 -36 44 -48 59 -12 16 -34 41 -49 57 -16 15 -28 34 -28 42 0 18 -73 104
-126 148 -24 19 -42 41 -41 49 2 18 -19 26 -28 11z"/>
<path d="M1262 2498 c-18 -18 -15 -34 11 -55 28 -23 99 -128 124 -182 4 -8 14
-22 23 -31 10 -10 19 -23 22 -30 6 -19 40 2 58 35 13 25 13 29 -9 46 -13 10
-29 19 -36 19 -20 0 -39 30 -37 59 1 15 -6 36 -15 47 -10 10 -30 38 -46 62
-21 33 -33 42 -55 42 -15 0 -33 -5 -40 -12z"/>
<path d="M1920 2479 c0 -7 -15 -29 -32 -47 -18 -19 -26 -31 -17 -26 28 15 70
72 59 79 -5 3 -10 1 -10 -6z"/>
<path d="M1710 2300 c0 -20 20 -50 34 -50 7 0 20 8 30 19 13 14 14 20 4 27
-20 15 -68 17 -68 4z"/>
<path d="M2333 2132 c-22 -20 -64 -53 -93 -72 -79 -54 -160 -123 -160 -137 0
-7 -3 -12 -7 -11 -9 3 -40 -18 -118 -79 -29 -24 -61 -43 -69 -43 -9 0 -16 -4
-16 -8 0 -10 -37 -22 -148 -49 -70 -16 -74 -16 -84 0 -7 14 -19 16 -64 12 -31
-3 -60 -8 -66 -11 -10 -7 -182 -6 -243 0 -16 2 -68 7 -115 10 -47 4 -94 11
-105 16 -11 5 -44 14 -74 20 -46 9 -57 8 -70 -5 -19 -19 -2 -39 37 -42 38 -3
107 -18 177 -38 36 -11 105 -19 170 -21 61 -2 155 -5 210 -7 54 -2 133 2 175
10 41 7 85 14 98 17 12 2 32 12 43 22 12 11 23 18 25 17 20 -13 62 7 135 65
99 77 117 90 142 98 9 4 17 10 17 14 0 4 14 14 32 21 18 7 47 26 65 42 19 16
36 27 40 24 3 -4 -39 -51 -93 -105 -55 -54 -116 -116 -136 -138 -20 -21 -57
-57 -82 -79 -25 -22 -45 -43 -46 -47 0 -17 29 -6 66 25 21 18 65 52 96 76 82
62 296 289 307 325 5 17 6 50 3 73 l-7 42 -42 -37z m-18 -92 c-16 -16 -30 -28
-33 -26 -6 6 40 56 52 56 5 0 -3 -13 -19 -30z"/>
<path d="M2348 1858 c-17 -18 -42 -50 -55 -71 -13 -21 -31 -46 -41 -56 -79
-84 -147 -174 -157 -211 -7 -25 -7 -25 26 5 l34 30 -29 -32 c-16 -18 -32 -32
-35 -31 -21 2 -33 -5 -40 -25 -5 -13 -25 -32 -45 -41 -38 -18 -47 -36 -18 -36
51 0 169 104 209 184 14 28 63 101 109 162 49 67 82 120 81 133 -2 27 -3 27
-39 -11z"/>
<path d="M2377 1607 c-19 -23 -52 -51 -73 -61 -22 -11 -75 -56 -120 -100 -44
-45 -111 -107 -148 -138 -37 -32 -66 -58 -64 -58 2 0 24 7 51 15 32 9 64 30
98 65 29 27 55 50 59 50 5 0 20 20 34 44 16 28 37 48 56 54 30 11 160 134 160
151 0 26 -21 17 -53 -22z"/>
<path d="M2379 1417 c-20 -12 -53 -37 -73 -54 -20 -18 -40 -33 -44 -33 -4 0
-34 -25 -67 -55 -33 -31 -102 -90 -153 -132 -86 -72 -105 -100 -76 -110 7 -2
52 35 100 82 130 125 149 141 175 155 13 7 41 27 61 44 20 17 57 47 82 66 72
56 69 81 -5 37z"/>
<path d="M2373 1188 c-41 -34 -91 -68 -98 -68 -3 0 -16 -9 -28 -20 -12 -12
-42 -32 -67 -47 -25 -14 -61 -40 -80 -58 -19 -19 -61 -46 -92 -60 -62 -29 -70
-40 -39 -50 23 -7 86 23 133 63 18 15 46 33 62 40 15 7 60 38 100 70 39 32 90
70 114 86 40 28 52 49 33 60 -5 4 -22 -4 -38 -16z"/>
<path d="M980 1036 c0 -20 14 -31 93 -69 155 -76 188 -89 212 -83 14 4 27 0
35 -8 15 -19 86 -56 106 -56 8 0 28 -6 43 -14 15 -8 48 -17 72 -20 24 -3 69
-13 99 -21 194 -54 248 -67 275 -69 17 -1 37 -6 46 -10 9 -4 20 -6 25 -5 21 6
179 -14 215 -26 37 -14 43 -13 95 12 60 28 58 27 68 67 l7 29 -56 -6 c-31 -3
-62 -10 -68 -16 -14 -11 -111 -10 -123 2 -4 4 -16 7 -26 7 -10 0 -18 5 -18 10
0 6 5 10 11 10 6 0 34 20 63 44 53 46 137 99 214 136 43 21 57 50 24 50 -11 0
-27 -9 -37 -20 -10 -11 -26 -20 -36 -20 -10 0 -26 -9 -37 -20 -10 -10 -33 -26
-52 -34 -19 -8 -46 -25 -60 -38 -75 -71 -102 -88 -140 -88 -21 0 -51 5 -67 11
-15 6 -57 15 -93 19 -84 10 -129 19 -160 30 -14 5 -41 12 -60 15 -30 5 -169
43 -414 112 -32 9 -68 24 -80 33 -20 16 -142 60 -166 60 -5 0 -10 -11 -10 -24z"/>
</g>
</svg>
