<?xml version="1.0" standalone="no"?>
<!DOCTYPE svg PUBLIC "-//W3C//DTD SVG 20010904//EN"
 "http://www.w3.org/TR/2001/REC-SVG-20010904/DTD/svg10.dtd">
<svg version="1.0" xmlns="http://www.w3.org/2000/svg"
 width="295.000000pt" height="540.000000pt" viewBox="0 0 295.000000 540.000000"
 preserveAspectRatio="xMidYMid meet">

<g transform="translate(0.000000,540.000000) scale(0.100000,-0.100000)"
fill="#00447F" stroke="none">
<path d="M1595 5360 c-86 -9 -216 -37 -270 -58 -65 -26 -215 -128 -276 -188
-32 -31 -65 -75 -74 -98 -9 -22 -23 -52 -30 -66 -7 -14 -18 -50 -24 -80 -13
-63 -14 -279 -2 -295 4 -5 14 -39 21 -75 15 -75 70 -181 106 -205 24 -16 25
-18 18 -103 -9 -97 -10 -199 -3 -206 2 -2 45 0 94 5 50 5 100 7 112 4 12 -3
46 -28 77 -56 42 -39 56 -58 56 -79 0 -35 56 -82 89 -73 16 4 21 1 21 -14 0
-25 -36 -57 -80 -72 -19 -6 -52 -23 -72 -36 -21 -14 -43 -25 -50 -25 -6 0 -21
-9 -32 -19 -12 -11 -48 -34 -81 -51 -33 -17 -69 -40 -80 -50 -11 -10 -49 -33
-83 -50 -35 -18 -79 -45 -97 -61 -33 -29 -63 -37 -80 -20 -10 9 -83 16 -142
13 -27 -2 -39 -13 -83 -71 -67 -91 -83 -97 -210 -81 -83 11 -107 11 -142 0
-24 -8 -49 -18 -55 -23 -7 -5 -19 -7 -28 -4 -8 4 -17 2 -20 -3 -4 -6 -14 -10
-24 -10 -10 0 -26 -9 -36 -21 -18 -19 -18 -21 -2 -52 10 -18 15 -40 12 -49 -4
-11 3 -20 25 -29 22 -10 30 -19 26 -32 -5 -21 25 -39 51 -31 10 3 14 2 8 -3
-14 -11 -12 -50 2 -64 18 -18 84 -12 145 11 87 33 83 37 101 -112 21 -171 26
-198 44 -205 8 -3 22 2 31 11 9 9 11 16 5 16 -18 0 -69 226 -58 261 6 17 12
19 38 14 18 -4 35 -10 38 -14 9 -10 29 -225 22 -249 -3 -14 -1 -22 7 -22 8 0
10 -20 7 -72 -11 -163 -5 -496 9 -523 7 -12 12 -119 13 -275 4 -357 8 -601 11
-630 1 -14 2 -80 1 -147 -2 -98 1 -127 13 -145 9 -12 16 -29 16 -37 0 -8 18
-38 40 -67 33 -44 60 -93 60 -109 0 -1 -21 -6 -46 -10 -25 -3 -43 -9 -40 -12
6 -6 -32 -43 -44 -43 -16 0 -26 -87 -14 -123 10 -28 10 -37 1 -37 -9 0 -11
-26 -9 -95 3 -88 5 -95 24 -95 33 0 209 -50 253 -72 22 -11 48 -27 57 -36 16
-14 22 -11 65 34 26 27 61 77 77 111 l31 61 16 -36 c9 -21 20 -50 25 -67 8
-27 14 -30 54 -32 58 -3 159 -23 185 -36 10 -6 46 -9 80 -8 58 2 76 -3 229
-58 33 -11 68 -21 79 -21 11 0 48 25 82 55 59 51 96 67 109 46 3 -4 23 -11 44
-13 20 -3 68 -24 105 -47 37 -22 74 -41 81 -41 8 0 23 15 34 34 23 38 227 212
327 277 l67 44 -7 40 c-5 35 -24 81 -72 177 -7 14 -13 34 -13 43 0 10 -18 54
-39 99 -22 44 -46 98 -55 118 -10 26 -27 43 -56 58 -22 11 -50 28 -61 38 -11
9 -23 17 -27 17 -70 5 -119 38 -119 81 0 126 -14 345 -23 369 -6 17 -13 114
-15 225 l-4 195 75 70 c63 60 74 75 74 103 0 18 8 47 17 65 9 18 15 49 14 69
-1 21 3 46 8 57 6 10 16 52 22 92 6 41 19 88 29 104 14 23 16 36 8 55 -7 18
-5 33 5 55 20 41 33 80 48 145 7 30 19 63 27 73 13 14 13 21 2 45 -14 29 -26
78 -39 152 -4 25 -13 56 -19 70 -5 14 -20 59 -32 100 -12 41 -28 90 -36 108
-8 18 -14 42 -14 52 0 11 -4 28 -9 38 -13 23 -40 108 -50 152 -4 19 -12 44
-18 55 -19 35 -27 107 -13 115 10 6 8 16 -5 41 -27 51 -28 53 -59 99 -15 24
-39 63 -52 88 -13 25 -29 51 -35 58 -6 7 -13 55 -16 107 -5 90 -5 95 16 106
11 7 21 20 21 30 0 10 6 24 14 30 23 19 119 223 128 271 4 25 13 70 19 100 21
110 9 308 -26 415 -14 42 -25 81 -25 89 0 16 -153 165 -206 200 -31 20 -66 31
-140 42 -55 8 -119 21 -143 29 -48 16 -50 16 -156 5z m269 -69 c93 -17 128
-29 162 -51 47 -33 148 -131 180 -176 20 -28 35 -94 37 -161 0 -18 4 -33 9
-33 12 0 9 -233 -4 -290 -5 -25 -13 -65 -17 -90 -8 -52 -80 -209 -104 -229
-28 -23 -46 -7 -46 41 0 40 -11 131 -26 219 -7 35 -5 37 44 68 51 31 69 57 75
110 1 14 9 43 16 65 22 67 -21 108 -81 75 -17 -8 -25 -5 -48 20 -33 35 -31 35
-83 19 -47 -14 -56 -39 -34 -93 19 -46 19 -45 2 -45 -25 0 -66 59 -66 96 0 35
-16 46 -27 19 -7 -19 -66 -45 -102 -45 -50 0 -54 13 -21 62 24 36 29 52 24 77
-7 33 -29 51 -63 51 -17 0 -21 6 -21 34 0 62 -71 87 -125 45 -23 -19 -26 -27
-20 -55 6 -33 5 -34 -28 -34 -66 0 -75 -43 -22 -101 40 -45 42 -54 16 -69 -31
-16 -70 -12 -98 10 -36 28 -46 25 -68 -17 -34 -63 -55 -83 -84 -83 -43 0 -44
10 -1 56 22 24 40 48 40 54 0 5 -10 20 -21 31 -18 18 -29 20 -66 15 -30 -4
-54 -1 -73 9 -16 8 -42 15 -59 15 -55 0 -82 -78 -41 -115 13 -12 20 -31 20
-56 0 -35 5 -42 56 -80 l56 -41 -4 -71 c-5 -77 -36 -176 -62 -192 -21 -13 -35
3 -85 96 -41 76 -41 78 -49 220 -7 112 -6 151 5 176 7 18 13 46 13 63 0 16 4
30 9 30 5 0 12 17 16 38 3 20 13 47 20 59 22 34 246 194 310 222 17 7 80 24
140 37 132 28 225 27 399 -5z m-224 -274 c0 -13 -6 -32 -14 -43 -14 -19 -15
-19 -40 5 -28 26 -36 76 -13 84 23 8 67 -22 67 -46z m-70 -72 c13 -14 28 -25
32 -25 5 0 24 11 42 25 41 31 64 32 75 3 10 -27 -3 -58 -24 -58 -8 0 -19 -9
-25 -20 -7 -14 -7 -20 0 -20 6 0 8 -10 4 -24 -5 -20 0 -27 25 -40 39 -21 59
-20 106 4 50 25 55 25 55 -2 1 -27 76 -88 108 -88 26 0 28 17 7 67 -8 19 -15
44 -15 54 0 23 26 38 54 31 40 -10 49 -23 42 -71 -6 -43 -6 -44 14 -26 11 10
22 25 25 35 6 19 52 43 66 35 14 -9 11 -73 -5 -108 -8 -18 -16 -42 -18 -55 -3
-23 -19 -35 -87 -66 -47 -22 -52 -21 -135 19 -40 19 -80 35 -89 35 -9 0 -18 4
-21 9 -10 15 -108 21 -204 11 -100 -9 -202 -40 -327 -99 l-79 -37 -21 61 c-18
54 -24 62 -62 79 -37 17 -43 24 -43 51 0 17 -9 48 -20 70 -24 47 -25 59 -5 75
13 10 22 10 53 -4 29 -13 47 -15 79 -8 83 19 93 -25 20 -90 -23 -20 -39 -39
-35 -43 16 -16 83 -32 107 -26 17 5 37 26 59 62 18 30 37 55 42 57 5 2 27 -11
49 -29 l40 -32 34 26 c19 14 37 35 40 46 7 28 -14 64 -43 71 -25 6 -36 29 -26
56 10 25 79 18 106 -11z m225 -322 c145 -45 199 -69 212 -94 31 -62 61 -260
49 -323 -8 -41 -32 -40 -43 3 -3 14 -14 42 -24 61 -9 19 -28 58 -40 85 -12 28
-26 58 -31 67 -4 10 -8 26 -8 37 0 10 -6 24 -14 30 -28 24 8 -88 81 -248 13
-30 27 -67 30 -83 3 -15 10 -31 14 -34 11 -7 12 -44 1 -44 -27 0 -248 280
-266 338 -8 23 -106 112 -124 112 -6 0 -23 11 -39 24 l-29 24 -84 -15 c-47 -8
-88 -18 -92 -22 -4 -4 36 -7 90 -6 87 0 101 -3 142 -27 75 -43 185 -175 196
-234 3 -18 12 -38 20 -45 10 -8 14 -34 14 -83 0 -64 -3 -77 -30 -112 -49 -67
-227 -154 -315 -154 -39 0 -59 6 -85 25 -42 31 -79 75 -80 94 0 8 -6 19 -14
25 -7 6 -16 35 -19 64 l-6 52 42 0 c24 0 48 -5 54 -11 6 -6 41 -14 77 -16 55
-5 67 -3 72 11 8 20 -4 55 -14 40 -4 -6 -32 -14 -63 -18 l-56 -7 -12 69 c-13
74 -49 132 -82 132 -17 0 -62 -46 -72 -72 -6 -17 -41 2 -45 25 -2 8 27 49 63
91 36 41 72 93 80 116 13 38 13 40 -5 40 -14 0 -20 -7 -20 -22 0 -12 -17 -38
-40 -59 -22 -21 -40 -42 -40 -47 0 -4 -13 -21 -29 -36 -21 -20 -32 -45 -41
-89 -7 -34 -19 -73 -25 -87 -24 -48 -27 -70 -12 -70 10 0 22 21 33 55 9 31 20
58 24 60 19 12 83 -104 97 -175 7 -37 -45 -54 -132 -45 l-65 7 0 68 c0 37 4
80 9 96 5 16 21 82 36 147 31 135 53 167 141 201 27 10 68 27 92 37 162 73
289 85 427 42z m-445 -323 c17 -10 16 -12 -29 -35 -42 -21 -65 -6 -35 24 21
22 41 25 64 11z m24 -76 c3 -9 6 -27 6 -40 0 -19 -5 -24 -25 -24 -22 0 -25 4
-25 34 0 41 31 63 44 30z m581 -124 c21 -26 54 -54 72 -61 41 -16 41 -28 4
-53 -44 -30 -95 -126 -67 -126 8 0 17 11 20 25 7 29 49 60 71 51 9 -3 19 -14
22 -23 4 -10 21 -38 38 -62 16 -24 38 -57 48 -75 11 -17 27 -40 38 -52 29 -32
25 -48 -12 -40 -17 3 -44 6 -60 6 -21 0 -28 5 -31 22 -2 13 -11 24 -23 27 -11
2 -23 9 -28 17 -5 9 -21 11 -55 7 -43 -5 -49 -3 -60 18 -7 13 -17 62 -22 109
-5 47 -14 112 -20 145 -13 68 -6 127 13 119 7 -3 30 -27 52 -54z m-85 -90 c0
-39 -134 -144 -206 -161 -114 -27 -224 -30 -224 -5 0 7 20 10 62 7 43 -2 72 2
93 12 16 9 64 31 105 50 41 19 93 50 115 70 42 38 55 44 55 27z m9 -151 c0
-20 10 -48 21 -62 26 -33 25 -39 -10 -65 -35 -27 -91 -29 -203 -7 -90 17 -117
19 -117 6 0 -12 107 -44 120 -36 13 8 40 -13 40 -31 0 -16 -48 -18 -149 -8
l-61 7 1 46 c2 71 11 96 39 99 106 10 235 66 286 124 l19 20 6 -28 c4 -16 7
-45 8 -65z m136 -133 c64 -23 58 -43 -17 -51 -35 -4 -81 -5 -103 -3 l-40 3 45
32 c52 36 61 38 115 19z m-517 -99 c3 -21 -6 -39 -33 -70 -45 -53 -110 -132
-155 -191 -37 -49 -60 -59 -60 -25 0 26 -21 20 -35 -9 -9 -20 -14 -21 -85 -15
-41 3 -87 12 -101 19 -14 7 -35 11 -46 8 -52 -14 -26 54 30 77 18 7 50 26 72
42 22 15 58 37 80 47 22 11 81 49 130 85 87 62 92 64 145 62 52 -2 55 -3 58
-30z m705 -18 c10 -28 17 -60 17 -70 0 -10 4 -20 9 -23 5 -3 12 -18 15 -33 8
-34 30 -112 61 -218 13 -44 26 -103 30 -132 4 -29 13 -57 21 -64 8 -6 14 -22
14 -34 0 -13 6 -36 14 -52 8 -15 22 -46 31 -68 8 -22 22 -53 30 -69 17 -31 12
-58 -26 -144 -11 -23 -19 -55 -19 -71 0 -16 -6 -34 -14 -40 -8 -7 -16 -28 -19
-49 -4 -20 -11 -68 -16 -107 -6 -38 -17 -97 -25 -130 -7 -33 -19 -87 -26 -120
-7 -33 -16 -73 -20 -90 -5 -16 -11 -47 -15 -67 -3 -23 -12 -39 -24 -43 -26 -8
-201 -191 -201 -210 0 -8 -4 -23 -9 -33 -30 -55 -61 -128 -61 -142 0 -9 -18
-29 -40 -46 -39 -29 -143 -146 -166 -187 -7 -12 -22 -42 -35 -67 -12 -25 -27
-52 -34 -60 -7 -8 -15 -24 -19 -35 -13 -36 20 4 72 89 59 96 151 205 174 205
18 1 36 -38 21 -48 -5 -3 -15 -44 -22 -91 -7 -47 -16 -101 -21 -120 -5 -19
-13 -82 -20 -140 -6 -58 -15 -130 -20 -160 -5 -30 -12 -113 -16 -184 -5 -108
-9 -131 -25 -144 -17 -14 -17 -18 -3 -33 12 -13 13 -29 6 -88 -9 -72 -4 -88
23 -77 9 3 16 30 21 75 5 56 10 71 23 71 20 0 81 37 98 59 6 9 31 48 53 86 37
61 85 114 95 103 7 -7 14 -197 7 -202 -4 -2 -5 -31 -2 -63 4 -50 8 -58 25 -58
19 0 20 5 15 70 -5 64 -3 239 3 340 2 46 -5 45 144 24 l92 -13 36 -72 c19 -40
35 -82 35 -94 0 -12 9 -33 20 -47 11 -14 22 -41 26 -62 4 -20 13 -45 20 -56 8
-11 14 -26 14 -35 0 -9 9 -33 20 -55 24 -46 25 -65 6 -65 -58 0 -234 -126
-304 -216 -31 -41 -62 -58 -62 -34 0 16 38 88 50 95 11 7 4 25 -10 25 -5 0
-21 -22 -37 -50 -15 -27 -31 -50 -35 -50 -3 0 -4 -9 -1 -20 7 -26 -12 -26 -74
1 -26 11 -66 24 -88 29 -45 9 -100 27 -130 43 -11 6 -49 18 -85 28 -61 15 -65
19 -66 45 -1 42 -13 84 -24 84 -6 0 -10 -22 -10 -50 0 -59 -11 -63 -57 -20
-26 23 -83 124 -83 146 0 3 -11 22 -25 42 -14 20 -25 45 -25 55 0 18 -42 102
-61 121 -5 6 -9 18 -9 28 0 10 -6 21 -14 24 -8 3 -31 32 -51 65 -21 32 -42 59
-47 59 -5 0 -6 61 -2 143 4 78 6 197 5 264 -2 114 0 123 17 123 13 0 23 -12
32 -41 8 -23 20 -43 26 -46 7 -3 18 -19 24 -36 14 -42 36 -71 49 -63 9 6 -20
66 -66 135 -13 19 -23 41 -23 49 0 9 -17 34 -37 55 -36 37 -37 40 -19 51 30
17 106 87 106 97 0 18 -22 8 -61 -28 -61 -56 -67 -58 -97 -31 -15 14 -43 29
-63 35 -31 9 -40 7 -60 -9 l-24 -19 32 6 c35 7 93 -17 93 -39 0 -7 -12 -31
-26 -52 -15 -21 -20 -33 -12 -26 9 7 28 10 47 6 l32 -7 -2 -66 c0 -36 0 -165
1 -285 l1 -220 35 -49 c19 -27 39 -58 45 -70 5 -12 25 -44 44 -71 19 -26 35
-57 35 -68 0 -10 9 -28 20 -40 11 -12 20 -28 20 -35 0 -16 45 -107 71 -145 11
-14 19 -31 19 -37 0 -6 11 -28 24 -49 29 -45 62 -139 53 -148 -10 -11 -88 16
-124 43 -17 13 -35 23 -40 23 -5 0 -41 23 -82 50 -41 28 -82 50 -92 50 -11 0
-19 3 -19 8 0 4 -9 108 -20 232 -32 360 -43 502 -45 550 0 25 -4 52 -7 60 -9
22 -29 159 -31 204 0 22 -3 34 -5 28 -6 -20 -32 -13 -71 20 -38 32 -121 64
-121 47 0 -5 6 -12 14 -15 15 -6 15 5 20 -444 3 -205 8 -308 19 -365 9 -44 21
-122 28 -174 13 -93 13 -94 -10 -112 -36 -30 -51 -24 -51 19 -1 20 -10 78 -21
127 -11 50 -24 122 -29 160 -5 39 -16 108 -25 155 -16 90 -37 341 -30 363 2 6
6 98 9 202 4 185 34 415 57 439 5 6 9 26 9 45 0 40 34 204 56 264 10 30 10 43
1 58 -16 26 -31 24 -51 -6 -20 -30 -20 -35 0 -35 29 0 8 -70 -34 -112 -40 -42
-52 -39 -55 13 -1 19 -5 39 -9 44 -3 6 -3 34 -1 63 5 49 8 54 43 72 21 10 51
31 69 45 l31 27 0 -37 c0 -54 23 -39 34 21 5 27 22 88 37 136 16 48 29 89 29
91 0 2 -13 2 -29 -1 -29 -4 -99 -77 -93 -95 1 -5 -1 -6 -6 -3 -5 3 -20 -6 -32
-19 -42 -45 8 -24 78 32 37 31 42 32 42 14 0 -11 -4 -23 -10 -26 -5 -3 -10
-15 -10 -26 0 -10 -6 -19 -14 -19 -8 0 -33 -21 -56 -47 -22 -26 -58 -57 -80
-69 l-38 -22 -5 42 c-4 34 -3 65 2 118 1 4 14 14 31 23 16 8 71 51 122 96 l93
80 5 -28 6 -28 17 34 c9 19 17 39 17 44 0 6 9 29 19 51 27 59 32 94 12 89 -9
-2 -45 14 -82 35 -140 83 -369 150 -369 108 0 -12 10 -16 39 -16 41 0 156 -32
204 -56 51 -27 30 -34 -87 -32 -69 1 -119 -2 -127 -9 -8 -5 -27 -13 -43 -17
-16 -4 -48 -16 -70 -27 -72 -34 -76 -27 -71 124 3 73 7 150 10 172 6 37 5 39
-10 21 -8 -11 -15 -29 -15 -40 0 -12 -3 -32 -7 -44 -5 -22 -9 -23 -52 -17 -25
4 -56 13 -69 21 -21 14 -31 13 -102 -5 -93 -24 -136 -26 -143 -7 -4 10 4 16
26 19 58 10 150 36 160 46 5 5 16 7 23 4 23 -9 16 10 -17 45 -36 38 -58 40
-154 11 -108 -32 -121 -33 -129 -14 -9 23 1 35 30 35 40 0 245 70 251 86 8 20
53 17 109 -8 27 -12 64 -21 83 -19 31 2 33 0 26 -21 -16 -53 -18 -71 -7 -64 6
4 14 23 18 42 l7 36 81 -7 c81 -8 109 -10 166 -13 l30 -2 0 -75 c0 -60 3 -75
15 -75 12 0 15 13 15 59 0 58 1 60 29 66 30 6 36 3 99 -58 23 -23 42 -74 42
-118 0 -29 25 -68 36 -56 4 4 3 28 -4 52 -7 25 -12 54 -12 64 0 11 -16 40 -35
65 -19 26 -35 55 -35 66 0 28 31 26 59 -4 37 -40 109 -87 116 -76 9 14 -3 30
-22 30 -20 0 -93 58 -93 75 0 14 63 67 93 78 13 5 23 -6 46 -51 16 -31 38 -66
50 -76 26 -24 26 -44 1 -76 -11 -14 -20 -31 -20 -38 0 -8 -9 -25 -20 -39 -11
-14 -20 -38 -20 -52 0 -15 -9 -44 -20 -66 -11 -22 -20 -46 -20 -53 0 -24 27 5
34 36 3 15 23 62 44 104 34 71 40 78 72 84 19 4 43 11 54 16 12 7 40 6 82 -2
l64 -12 0 -38 c0 -38 0 -38 -62 -59 -35 -11 -81 -22 -103 -25 -22 -3 -53 -10
-68 -15 -54 -21 -17 -63 66 -76 22 -4 35 -10 31 -16 -3 -6 -40 -26 -81 -45
-42 -19 -87 -46 -100 -60 -23 -25 -23 -26 -6 -54 16 -28 16 -32 -1 -87 -22
-69 -65 -232 -75 -288 -4 -22 -12 -49 -19 -60 -6 -11 -14 -41 -17 -67 -3 -26
-10 -50 -16 -53 -5 -4 -9 -19 -9 -35 0 -16 -4 -31 -9 -34 -4 -3 -11 -24 -15
-46 -3 -23 -17 -73 -30 -113 -13 -40 -29 -117 -36 -172 -6 -55 -14 -118 -17
-140 -5 -40 -5 -40 15 -20 18 19 35 113 48 268 2 21 8 44 13 51 6 7 18 50 27
96 15 79 29 127 61 198 8 18 25 87 39 153 27 130 76 292 95 315 15 18 60 18
85 0 19 -15 19 -15 -3 -53 -114 -199 -177 -387 -214 -638 -16 -111 -17 -147
-4 -152 7 -2 16 38 24 99 15 122 64 342 87 395 9 21 18 47 19 59 2 11 19 52
37 90 35 71 73 102 124 104 23 0 34 -31 34 -95 0 -18 7 -39 17 -46 17 -15 17
-12 -3 169 -5 42 -4 52 9 52 8 0 18 -7 21 -16 4 -9 9 -14 13 -11 3 4 -6 24
-20 46 l-26 39 27 30 c34 36 106 92 120 92 18 0 82 -99 137 -215 31 -64 71
-140 90 -170 19 -30 35 -58 35 -62 0 -14 151 -238 163 -242 7 -2 22 -12 34
-23 12 -11 26 -17 32 -13 18 10 14 120 -5 136 -14 12 -16 9 -13 -31 3 -30 0
-45 -8 -45 -11 0 -123 127 -123 140 0 3 -12 23 -26 45 -21 31 -24 43 -15 54 6
7 16 51 22 97 5 46 14 100 19 119 14 49 12 60 -5 54 -8 -4 -22 -1 -30 6 -12
10 -15 10 -15 -3 0 -9 5 -19 10 -22 14 -8 12 -35 -3 -65 -7 -14 -11 -44 -9
-67 3 -35 1 -42 -18 -48 -26 -8 -21 -12 -52 50 -14 28 -44 88 -68 135 -24 47
-51 100 -59 118 -9 19 -25 41 -36 48 -19 14 -19 16 -2 28 10 8 34 17 53 20 49
10 83 -17 84 -66 0 -20 -4 -40 -10 -43 -18 -11 -10 -25 15 -25 13 0 28 -8 34
-17 8 -15 12 -16 22 -5 7 6 21 12 30 12 11 0 19 9 21 23 2 15 11 23 28 25 14
2 30 8 35 12 6 4 39 20 75 35 36 15 84 36 107 46 52 24 73 24 73 2 0 -15 3
-14 22 5 15 15 19 25 12 32 -13 13 -120 -13 -176 -41 -46 -23 -78 -25 -78 -3
0 8 23 38 51 65 l51 50 -19 22 c-11 12 -37 47 -58 77 l-38 54 12 81 c7 44 21
107 31 140 10 33 21 98 25 145 6 78 5 83 -9 66 -9 -11 -16 -37 -16 -57 0 -21
-4 -49 -10 -63 -8 -22 -18 -70 -34 -171 -8 -45 -29 -115 -35 -115 -4 0 -15 16
-25 34 -10 19 -29 45 -42 57 -13 12 -24 27 -24 32 0 5 -15 27 -32 47 -18 21
-44 55 -58 75 -14 20 -37 51 -52 69 -15 18 -32 44 -38 57 -27 60 -55 97 -66
86 -8 -8 78 -146 133 -214 24 -29 43 -56 43 -59 0 -4 10 -21 23 -38 12 -17 29
-44 37 -60 8 -16 26 -41 40 -56 31 -34 70 -87 70 -95 0 -4 20 -30 45 -58 25
-29 45 -59 45 -67 0 -9 -23 -41 -50 -71 -28 -29 -60 -68 -72 -86 -15 -21 -33
-33 -57 -37 -19 -3 -37 -3 -40 -1 -7 8 31 158 47 183 10 15 12 26 5 33 -14 14
-26 -5 -47 -73 -9 -33 -23 -58 -30 -58 -8 0 -25 34 -41 78 -15 42 -34 85 -42
94 -9 10 -13 24 -10 31 3 8 -6 31 -20 52 -16 23 -23 45 -19 58 3 12 -1 28 -8
37 -7 8 -19 38 -26 65 -7 28 -23 73 -35 100 -13 28 -28 70 -35 95 -7 25 -17
56 -22 70 -15 37 -38 128 -38 150 0 16 11 19 98 23 53 3 174 7 269 9 94 2 175
7 179 11 4 4 17 7 29 7 18 0 25 -10 38 -51z m-640 -6 c3 -16 10 -47 16 -71 6
-23 9 -53 5 -66 -4 -17 0 -28 14 -38 11 -7 25 -34 32 -58 7 -25 19 -58 26 -73
13 -25 12 -39 -8 -132 -15 -68 -26 -101 -33 -95 -10 8 -62 14 -102 11 -14 0
-23 -8 -23 -17 0 -10 -7 -14 -21 -12 -14 2 -31 21 -49 54 -31 59 -38 88 -49
204 -7 73 -6 86 8 97 9 7 24 13 34 13 14 0 17 -10 18 -57 0 -32 5 -83 10 -113
5 -30 11 -75 14 -99 4 -41 18 -71 29 -60 3 2 -2 38 -10 79 -8 41 -17 118 -21
170 -3 52 -10 101 -16 108 -7 9 -4 19 10 35 31 35 93 126 93 137 0 22 18 8 23
-17z m-735 -247 c34 -17 145 -46 180 -46 15 0 45 -7 67 -15 58 -21 108 -19
130 5 27 29 45 25 45 -10 0 -16 -4 -30 -10 -30 -5 0 -35 -21 -66 -46 -47 -38
-65 -47 -98 -47 -58 -1 -195 11 -311 27 -55 7 -103 11 -108 9 -15 -9 -67 9
-67 22 0 8 30 43 66 79 59 59 71 66 106 66 21 0 51 -6 66 -14z m523 -123 c10
-45 23 -91 29 -102 17 -33 -5 -25 -39 14 -19 22 -31 47 -31 64 0 16 -7 34 -15
41 -18 15 -19 42 -3 58 26 26 41 7 59 -75z m-942 -12 c18 -11 13 -13 -135 -61
-106 -34 -137 -36 -142 -8 -4 20 28 39 76 45 19 3 48 11 66 19 36 15 114 18
135 5z m1304 -64 c22 -55 22 -77 -2 -77 -11 0 -26 -3 -35 -6 -12 -4 -16 0 -16
16 0 29 21 110 29 110 3 0 14 -19 24 -43z m-1305 -94 c-2 -11 -25 -22 -68 -35
-86 -24 -120 -24 -120 1 0 26 65 48 148 50 35 1 43 -2 40 -16z m1335 -63 c54
0 48 -25 -10 -40 -27 -6 -58 -16 -70 -21 -18 -6 -25 -4 -33 11 -5 10 -10 24
-10 30 0 15 40 30 65 25 11 -3 37 -5 58 -5z m54 -80 c3 -17 10 -33 14 -36 5
-3 9 -18 9 -35 0 -25 -4 -29 -26 -29 -52 0 -185 -77 -261 -150 -74 -73 -89
-81 -100 -54 -7 19 53 82 125 130 46 31 68 64 43 64 -12 0 -123 -91 -172 -142
-33 -34 -42 -38 -88 -38 -81 0 -64 23 64 88 74 38 153 97 143 108 -3 2 -28 0
-56 -6 -82 -15 -139 3 -112 35 9 11 31 15 74 14 57 -2 251 45 295 71 28 16 41
11 48 -20z m-818 -156 c42 -9 39 -26 -8 -52 -43 -24 -51 -19 -51 34 0 25 8 28
59 18z m165 -19 c19 -14 19 -15 0 -36 -10 -12 -41 -37 -69 -56 -27 -19 -70
-50 -94 -69 -24 -19 -48 -33 -54 -31 -15 5 -21 27 -7 27 35 0 195 143 186 167
-7 17 14 16 38 -2z m-257 -7 c4 -7 8 -71 8 -143 1 -71 5 -139 9 -151 5 -14 2
-26 -8 -37 -13 -12 -14 -21 -5 -46 6 -18 9 -40 6 -50 -4 -16 9 -177 20 -246
16 -99 19 -259 11 -545 -6 -183 -14 -250 -33 -250 -12 0 -27 72 -28 130 0 14
-8 90 -18 170 -36 292 -40 363 -42 763 -2 224 -1 410 2 412 10 10 70 4 78 -7z
m183 -5 c-1 -20 -120 -123 -141 -123 -5 0 -9 14 -9 30 0 23 4 30 20 30 21 0
93 41 105 60 7 12 25 14 25 3z m140 -66 c-8 -30 -16 -44 -25 -41 -7 3 -43 -21
-81 -54 -88 -75 -184 -145 -185 -135 -9 69 -8 95 4 90 21 -8 35 1 231 160 28
22 55 38 59 34 4 -5 3 -29 -3 -54z m-436 22 c3 -17 3 -49 0 -70 -4 -25 -2 -44
6 -54 9 -11 10 -26 2 -57 -18 -75 -2 -526 29 -840 11 -108 18 -200 17 -205 -1
-4 2 -28 6 -53 25 -156 35 -229 34 -260 -1 -48 29 -220 41 -234 6 -7 10 -21
10 -31 0 -11 6 -56 15 -100 21 -107 20 -115 -5 -115 -18 0 -19 -2 -9 -15 18
-22 -5 -65 -34 -65 -19 0 -52 46 -141 198 -6 9 -18 29 -28 44 -10 15 -17 37
-15 50 4 33 46 31 67 -3 37 -61 125 -188 129 -185 6 7 -27 66 -79 142 -47 68
-58 94 -41 94 5 0 14 11 20 25 17 37 -4 41 -34 6 -42 -51 -54 -42 -54 42 -1
77 -8 305 -14 477 -4 95 -7 153 -21 415 -3 44 -7 208 -11 365 -7 341 2 433 45
449 46 17 58 13 65 -20z m719 -149 c3 -11 0 -20 -5 -20 -6 0 -17 -8 -24 -17
-9 -14 -16 -15 -24 -7 -9 9 -8 18 5 38 21 31 41 34 48 6z m-479 -549 c7 -10
-22 -111 -36 -128 -17 -21 -28 -4 -28 43 0 63 43 120 64 85z m1101 -252 c10
-30 -2 -65 -30 -93 -32 -32 -32 -50 -1 -44 23 5 36 -7 36 -31 0 -8 -135 -111
-144 -111 -12 0 -5 58 8 69 7 6 11 22 9 35 -3 14 5 39 20 62 13 22 28 50 32
64 11 33 37 69 52 70 6 0 15 -9 18 -21z m7 -310 l5 -66 -76 -82 c-84 -90 -111
-101 -111 -47 0 37 11 50 52 60 29 7 60 46 36 46 -7 0 -22 -7 -32 -15 -31 -24
-35 -19 -32 42 2 41 8 60 20 67 10 6 41 28 69 49 59 44 62 41 69 -54z m-991
-27 c9 -4 28 -21 42 -38 24 -28 27 -43 42 -230 10 -109 19 -226 22 -259 2 -33
8 -118 13 -190 5 -71 13 -152 18 -180 6 -27 16 -83 23 -123 10 -57 17 -75 35
-85 12 -6 53 -29 90 -50 38 -20 72 -37 76 -37 4 0 8 -7 8 -16 0 -14 -8 -16
-57 -10 -31 4 -75 15 -99 25 -23 10 -60 22 -82 26 -33 5 -42 12 -53 38 -7 18
-20 43 -29 57 -11 16 -25 82 -39 180 -12 85 -26 182 -31 215 -5 33 -13 201
-16 373 -7 331 -8 323 37 304z m999 -135 c0 -24 7 -52 15 -63 21 -28 19 -47
-5 -41 -22 6 -70 -27 -117 -80 -28 -31 -43 -63 -29 -63 2 0 30 25 62 55 33 30
64 55 70 55 7 0 15 -21 19 -46 6 -39 3 -51 -17 -79 -25 -35 -221 -225 -233
-225 -3 0 -3 20 0 43 4 24 8 66 10 93 8 101 16 190 20 209 3 11 24 33 49 48
24 15 65 52 91 82 26 30 51 55 56 55 5 0 9 -19 9 -43z m40 -317 c0 -11 -4 -22
-10 -25 -5 -3 -10 -23 -10 -43 0 -32 -5 -39 -33 -53 -21 -10 -53 -47 -95 -109
-51 -75 -110 -140 -129 -140 -1 0 -7 9 -13 20 -8 15 -7 37 2 80 11 57 16 64
79 118 37 31 94 84 126 118 57 60 83 70 83 34z m-1194 -355 c8 -20 -13 -45
-37 -45 -29 0 -34 21 -8 41 29 23 38 23 45 4z m-200 -40 c27 -8 78 -17 115
-20 103 -10 109 -16 131 -119 17 -83 17 -91 1 -108 -21 -23 -36 -23 -58 2 -10
11 -26 20 -37 20 -10 0 -18 4 -18 9 0 5 -36 27 -80 49 -50 25 -80 35 -80 27 0
-7 -7 -16 -16 -19 -9 -4 -14 -9 -11 -13 4 -3 14 0 22 7 19 16 50 4 106 -41 20
-16 43 -29 52 -29 8 0 31 -13 51 -29 30 -24 43 -29 71 -24 30 5 35 3 35 -14 0
-11 -11 -32 -24 -46 -13 -14 -26 -32 -28 -39 -3 -9 -23 -4 -74 21 -86 42 -114
53 -188 78 -48 15 -61 24 -69 47 -8 23 -5 32 14 52 12 13 17 24 10 24 -8 0
-11 15 -10 43 2 54 20 137 30 137 3 0 29 -7 55 -15z m1012 -324 c26 -11 55
-22 65 -25 9 -3 17 -13 17 -21 0 -19 -81 -58 -104 -49 -18 7 -51 88 -41 103 8
14 8 14 63 -8z"/>
<path d="M1565 4388 c-40 -34 -46 -77 -20 -128 31 -59 105 -91 134 -56 15 18
-4 33 -22 17 -15 -12 -27 -4 -44 26 -18 32 -18 33 30 33 42 0 77 13 61 22 -5
3 -37 5 -72 6 -35 0 -66 3 -69 6 -4 3 -1 17 5 31 14 29 50 33 87 9 23 -15 51
-11 40 6 -3 5 -26 20 -50 34 l-46 25 -34 -31z"/>
<path d="M1542 4044 c-14 -9 -41 -15 -70 -14 -64 2 -64 3 -52 -20 11 -20 40
-27 54 -12 4 4 28 14 53 22 26 8 48 21 51 28 5 16 -9 15 -36 -4z"/>
<path d="M1487 3953 c-15 -14 -5 -18 33 -15 22 2 40 8 40 13 0 10 -63 12 -73
2z"/>
<path d="M1825 3859 c-4 -5 -31 -21 -61 -34 -30 -13 -54 -29 -54 -34 0 -6 3
-11 8 -11 17 0 136 66 140 78 5 15 -24 16 -33 1z"/>
<path d="M2275 2744 c-9 -14 -15 -27 -13 -30 2 -2 12 10 22 26 21 37 15 40 -9
4z"/>
<path d="M2085 2608 c-2 -7 -9 -40 -14 -73 -7 -49 -6 -63 7 -78 8 -9 17 -15
19 -13 8 8 9 167 1 172 -4 3 -10 -1 -13 -8z"/>
<path d="M1591 2477 c11 -28 24 -60 29 -69 6 -10 10 -26 10 -37 0 -25 -61 -74
-74 -61 -14 14 -36 -40 -24 -62 7 -15 16 -9 62 38 30 30 56 51 59 47 11 -20
16 -63 8 -63 -6 0 -27 -26 -48 -57 -33 -50 -38 -54 -43 -34 -3 12 -9 21 -15
20 -13 -3 -37 -59 -25 -59 6 0 10 -7 10 -16 0 -31 34 -8 75 51 44 62 70 78 81
51 8 -20 -29 -109 -63 -153 -25 -34 -53 -44 -53 -19 0 7 -6 19 -14 25 -11 10
-16 8 -21 -8 -3 -12 -4 -29 -1 -38 5 -19 13 -257 21 -640 l5 -232 -31 -22
c-17 -12 -35 -31 -40 -43 -5 -11 -13 -28 -19 -36 -5 -8 -16 -33 -25 -55 -9
-22 -22 -52 -30 -67 -11 -23 -11 -29 0 -38 19 -16 32 -6 40 33 4 17 11 37 14
42 4 6 16 33 26 60 10 29 36 70 62 96 l44 46 -6 189 c-3 104 -8 225 -10 270
l-5 80 38 17 c32 14 45 29 75 90 44 88 71 116 95 100 12 -7 17 -24 17 -52 0
-32 4 -41 18 -41 9 0 17 -7 17 -15 0 -8 10 -44 21 -79 19 -58 24 -64 40 -55
17 9 17 13 -11 89 -16 43 -34 87 -39 97 -6 10 -17 36 -25 58 -44 129 -80 222
-92 240 -8 11 -14 34 -14 51 0 18 -8 38 -20 49 -11 10 -20 25 -20 35 0 19 -95
216 -109 224 -5 3 0 -18 10 -47z m139 -358 c11 -24 11 -36 2 -50 -11 -16 -9
-21 10 -30 13 -5 29 -22 36 -36 16 -35 15 -43 -3 -43 -15 0 -59 -60 -95 -129
-25 -50 -58 -82 -79 -78 -11 1 -15 27 -17 111 l-2 110 44 50 c25 28 52 68 61
89 9 20 20 37 24 37 3 0 12 -14 19 -31z"/>
<path d="M1417 2254 c-26 -20 -47 -41 -47 -45 0 -19 27 -6 75 36 61 54 39 61
-28 9z"/>
<path d="M1411 2143 c-50 -56 -60 -73 -42 -73 16 0 111 97 111 114 0 28 -17
18 -69 -41z"/>
<path d="M1421 1993 c-49 -55 -60 -73 -43 -73 14 0 90 84 97 108 3 12 4 22 1
22 -2 0 -27 -26 -55 -57z"/>
<path d="M1378 1820 c-43 -43 -78 -86 -78 -94 0 -9 2 -16 4 -16 8 0 176 175
176 182 0 22 -33 -1 -102 -72z"/>
<path d="M1759 1755 c-11 -24 -38 -64 -60 -89 -42 -48 -46 -56 -25 -56 7 0 31
24 53 53 48 63 52 70 63 107 13 46 -7 36 -31 -15z"/>
<path d="M1422 1690 c-13 -22 -26 -38 -31 -36 -11 7 -83 -62 -76 -73 3 -6 30
7 59 27 46 31 66 56 94 115 2 4 -2 7 -10 7 -7 0 -23 -18 -36 -40z"/>
<path d="M1864 1646 c-10 -8 -16 -17 -13 -20 3 -3 14 3 24 14 21 23 17 26 -11
6z"/>
<path d="M1547 1021 c-5 -20 25 -246 42 -316 5 -22 12 -69 15 -104 6 -61 18
-91 38 -91 5 0 7 4 3 9 -3 6 -8 31 -10 58 -3 26 -10 73 -16 103 -6 30 -12 73
-14 95 -2 36 -17 150 -31 233 -5 36 -19 42 -27 13z"/>
<path d="M2320 825 c-8 -9 -17 -38 -21 -63 -12 -71 -29 -155 -36 -172 -3 -8
-5 -25 -4 -37 1 -11 -3 -24 -8 -28 -6 -3 -11 -33 -11 -66 l0 -61 -57 5 c-32 3
-74 9 -94 12 -35 7 -143 -18 -154 -35 -2 -4 53 -8 123 -9 70 -1 147 -2 172 -4
l45 -2 3 46 c3 43 5 47 47 67 25 12 66 32 91 44 25 12 47 25 50 29 5 9 -44 69
-56 69 -4 0 -7 -14 -6 -31 1 -22 -5 -35 -19 -43 -11 -6 -31 -19 -44 -28 -36
-27 -51 -23 -51 15 0 43 39 247 52 271 13 25 -4 42 -22 21z"/>
<path d="M1418 595 c-9 -14 -14 -232 -6 -241 4 -3 19 -3 34 0 23 6 25 10 19
34 -18 65 -27 111 -33 162 -4 30 -10 51 -14 45z"/>
<path d="M1825 369 c-56 -13 -68 -29 -23 -29 20 0 40 5 43 10 3 6 16 10 28 10
12 0 29 5 37 10 19 13 -29 12 -85 -1z"/>
<path d="M1561 3338 c-15 -49 -31 -191 -24 -216 10 -39 20 -23 27 41 3 34 8
78 10 97 2 19 7 52 11 73 9 47 -9 51 -24 5z"/>
</g>
</svg>
